<svg width="60" height="60" viewBox="0 0 60 60" fill="none" xmlns="http://www.w3.org/2000/svg">
<path d="M50.1223 36.7195C49.2741 34.7435 47.8646 33.0687 46.089 31.8823C45.2011 31.2892 44.2203 30.8184 43.1729 30.4959C42.1256 30.1734 41.0114 29.9999 39.8636 30C38.2148 29.9986 36.6577 30.3442 35.2368 30.9201C33.9913 31.4237 32.8448 32.0979 31.7729 32.8696C29.8977 34.2224 28.2383 35.8724 26.6537 37.5603C26.6022 37.6153 26.5518 37.6706 26.5004 37.7258C26.4893 37.7138 26.4783 37.7017 26.4672 37.6897C25.5788 36.7386 24.6658 35.7991 23.7067 34.9144C22.2676 33.5891 20.724 32.3806 18.9779 31.4787C18.1054 31.0287 17.1815 30.6579 16.2049 30.4004C15.2288 30.1427 14.2007 29.9999 13.1363 30.0001C11.6057 29.9999 10.1359 30.3088 8.80281 30.8671C6.80232 31.7049 5.10671 33.0971 3.90567 34.851C3.30521 35.728 2.82853 36.6969 2.50203 37.7315C2.17552 38.7659 1.99987 39.8665 2 41.0003C1.99973 42.5121 2.3125 43.9639 2.87774 45.2807C3.72588 47.2565 5.13552 48.9313 6.91102 50.1177C7.7989 50.7108 8.77974 51.1816 9.82714 51.5041C10.8744 51.8266 11.9886 52.0001 13.1364 52C14.7852 52.0013 16.3423 51.6558 17.7632 51.0799C19.0087 50.5763 20.1552 49.9021 21.2271 49.1304C23.1023 47.7776 24.7617 46.1276 26.3464 44.4397C26.3978 44.3847 26.4483 44.3294 26.4996 44.2743C26.5107 44.2863 26.5217 44.2984 26.5328 44.3104C27.4212 45.2615 28.3342 46.2011 29.2933 47.0857C30.7324 48.4111 32.276 49.6195 34.0221 50.5214C34.8947 50.9712 35.8185 51.3422 36.7951 51.5998C37.7712 51.8575 38.7994 52.0003 39.8637 52C41.3943 52.0003 42.8641 51.6912 44.1972 51.133C46.1977 50.2952 47.8933 48.903 49.0943 47.1491C49.6948 46.2721 50.1715 45.3032 50.498 44.2687C50.8245 43.2342 51.0001 42.1336 51 41C51.0003 39.4881 50.6875 38.0363 50.1223 36.7195ZM23.1935 41.327C22.3459 42.2346 21.5056 43.0967 20.6672 43.8695C19.41 45.0305 18.1575 45.9832 16.9171 46.6208C16.2964 46.9407 15.6794 47.1843 15.056 47.3487C14.4321 47.513 13.8015 47.5997 13.1366 47.5999C12.2108 47.5997 11.3388 47.4151 10.5408 47.0816C9.34472 46.5817 8.31813 45.7401 7.59603 44.6846C7.23485 44.157 6.94983 43.5772 6.75497 42.9595C6.56011 42.3417 6.45474 41.6861 6.45474 41.0001C6.45501 40.0857 6.64187 39.2244 6.97944 38.4363C7.4856 37.2549 8.3376 36.2408 9.40634 35.5275C9.94037 35.1708 10.5275 34.8892 11.153 34.6968C11.7786 34.5043 12.4422 34.4002 13.1367 34.4002C14.1648 34.4015 15.116 34.606 16.0768 34.9927C16.9154 35.3311 17.7563 35.815 18.6031 36.4251C20.0857 37.4904 21.574 38.9432 23.0783 40.5501C23.2168 40.6979 23.3563 40.8502 23.4953 41.0004C23.3949 41.1087 23.2939 41.2196 23.1935 41.327ZM46.021 43.5641C45.5148 44.7456 44.6628 45.7596 43.5941 46.4729C43.06 46.8296 42.4729 47.1112 41.8474 47.3036C41.2218 47.4961 40.5582 47.6002 39.8637 47.6002C38.8356 47.5989 37.8844 47.3944 36.9236 47.0077C36.085 46.6693 35.2441 46.1854 34.3973 45.5753C32.9147 44.51 31.4264 43.0572 29.9221 41.4503C29.7836 41.3025 29.6441 41.1501 29.5051 41C29.6056 40.8913 29.7066 40.7804 29.8069 40.6731C30.6545 39.7656 31.4948 38.9034 32.3332 38.1306C33.5904 36.9696 34.8429 36.017 36.0833 35.3793C36.704 35.0595 37.321 34.8159 37.9444 34.6514C38.5683 34.4872 39.1989 34.4005 39.8638 34.4002C40.7896 34.4005 41.6616 34.585 42.4596 34.9185C43.6557 35.4185 44.6823 36.26 45.4044 37.3157C45.7655 37.8433 46.0506 38.4231 46.2454 39.0407C46.4403 39.6586 46.5457 40.3141 46.5457 41.0001C46.5455 41.9144 46.3587 42.7758 46.021 43.5641Z" fill="#BECFCF"/>
<mask id="path-2-inside-1" fill="white">
<path fill-rule="evenodd" clip-rule="evenodd" d="M53.155 16.31C54.3452 16.31 55.31 15.3452 55.31 14.155C55.31 12.9648 54.3452 12 53.155 12C51.9648 12 51 12.9648 51 14.155C51 15.3452 51.9648 16.31 53.155 16.31ZM53.155 20.31C56.5543 20.31 59.31 17.5543 59.31 14.155C59.31 10.7557 56.5543 8 53.155 8C49.7557 8 47 10.7557 47 14.155C47 17.5543 49.7557 20.31 53.155 20.31Z"/>
</mask>
<path fill-rule="evenodd" clip-rule="evenodd" d="M53.155 16.31C54.3452 16.31 55.31 15.3452 55.31 14.155C55.31 12.9648 54.3452 12 53.155 12C51.9648 12 51 12.9648 51 14.155C51 15.3452 51.9648 16.31 53.155 16.31ZM53.155 20.31C56.5543 20.31 59.31 17.5543 59.31 14.155C59.31 10.7557 56.5543 8 53.155 8C49.7557 8 47 10.7557 47 14.155C47 17.5543 49.7557 20.31 53.155 20.31Z" fill="#FC605C"/>
<path d="M51.31 14.155C51.31 13.136 52.136 12.31 53.155 12.31V20.31C56.5543 20.31 59.31 17.5543 59.31 14.155H51.31ZM53.155 16C52.136 16 51.31 15.174 51.31 14.155H59.31C59.31 10.7557 56.5543 8 53.155 8V16ZM55 14.155C55 15.174 54.174 16 53.155 16V8C49.7557 8 47 10.7557 47 14.155H55ZM53.155 12.31C54.174 12.31 55 13.136 55 14.155H47C47 17.5543 49.7557 20.31 53.155 20.31V12.31ZM55.31 14.155C55.31 15.3452 54.3452 16.31 53.155 16.31V24.31C58.7635 24.31 63.31 19.7635 63.31 14.155H55.31ZM53.155 12C54.3452 12 55.31 12.9648 55.31 14.155H63.31C63.31 8.54655 58.7635 4 53.155 4V12ZM51 14.155C51 12.9648 51.9648 12 53.155 12V4C47.5465 4 43 8.54655 43 14.155H51ZM53.155 16.31C51.9648 16.31 51 15.3452 51 14.155H43C43 19.7635 47.5465 24.31 53.155 24.31V16.31Z" fill="#FC605C" mask="url(#path-2-inside-1)"/>
</svg>
