<svg width="60" height="60" viewBox="0 0 60 60" fill="none" xmlns="http://www.w3.org/2000/svg">
<path d="M49.1223 36.7195C48.2741 34.7435 46.8646 33.0687 45.089 31.8823C44.2011 31.2892 43.2203 30.8184 42.1729 30.4959C41.1256 30.1734 40.0114 29.9999 38.8636 30C37.2148 29.9986 35.6577 30.3442 34.2368 30.9201C32.9913 31.4237 31.8448 32.0979 30.7729 32.8696C28.8977 34.2224 27.2383 35.8724 25.6537 37.5603C25.6022 37.6153 25.5518 37.6706 25.5004 37.7258C25.4893 37.7138 25.4783 37.7017 25.4672 37.6897C24.5788 36.7386 23.6658 35.7991 22.7067 34.9144C21.2676 33.5891 19.724 32.3806 17.9779 31.4787C17.1054 31.0287 16.1815 30.6579 15.2049 30.4004C14.2288 30.1427 13.2007 29.9999 12.1363 30.0001C10.6057 29.9999 9.1359 30.3088 7.80281 30.8671C5.80232 31.7049 4.10671 33.0971 2.90567 34.851C2.30521 35.728 1.82853 36.6969 1.50203 37.7315C1.17552 38.7659 0.999867 39.8665 1 41.0003C0.999733 42.5121 1.3125 43.9639 1.87774 45.2807C2.72588 47.2565 4.13552 48.9313 5.91102 50.1177C6.7989 50.7108 7.77974 51.1816 8.82714 51.5041C9.8744 51.8266 10.9886 52.0001 12.1364 52C13.7852 52.0013 15.3423 51.6558 16.7632 51.0799C18.0087 50.5763 19.1552 49.9021 20.2271 49.1304C22.1023 47.7776 23.7617 46.1276 25.3464 44.4397C25.3978 44.3847 25.4483 44.3294 25.4996 44.2743C25.5107 44.2863 25.5217 44.2984 25.5328 44.3104C26.4212 45.2615 27.3342 46.2011 28.2933 47.0857C29.7324 48.4111 31.276 49.6195 33.0221 50.5214C33.8947 50.9712 34.8185 51.3422 35.7951 51.5998C36.7712 51.8575 37.7994 52.0003 38.8637 52C40.3943 52.0003 41.8641 51.6912 43.1972 51.133C45.1977 50.2952 46.8933 48.903 48.0943 47.1491C48.6948 46.2721 49.1715 45.3032 49.498 44.2687C49.8245 43.2342 50.0001 42.1336 50 41C50.0003 39.4881 49.6875 38.0363 49.1223 36.7195ZM22.1935 41.327C21.3459 42.2346 20.5056 43.0967 19.6672 43.8695C18.41 45.0305 17.1575 45.9832 15.9171 46.6208C15.2964 46.9407 14.6794 47.1843 14.056 47.3487C13.4321 47.513 12.8015 47.5997 12.1366 47.5999C11.2108 47.5997 10.3388 47.4151 9.54083 47.0816C8.34472 46.5817 7.31813 45.7401 6.59603 44.6846C6.23485 44.157 5.94983 43.5772 5.75497 42.9595C5.56011 42.3417 5.45474 41.6861 5.45474 41.0001C5.45501 40.0857 5.64187 39.2244 5.97944 38.4363C6.4856 37.2549 7.3376 36.2408 8.40634 35.5275C8.94037 35.1708 9.52749 34.8892 10.153 34.6968C10.7786 34.5043 11.4422 34.4002 12.1367 34.4002C13.1648 34.4015 14.116 34.606 15.0768 34.9927C15.9154 35.3311 16.7563 35.815 17.6031 36.4251C19.0857 37.4904 20.574 38.9432 22.0783 40.5501C22.2168 40.6979 22.3563 40.8502 22.4953 41.0004C22.3949 41.1087 22.2939 41.2196 22.1935 41.327ZM45.021 43.5641C44.5148 44.7456 43.6628 45.7596 42.5941 46.4729C42.06 46.8296 41.4729 47.1112 40.8474 47.3036C40.2218 47.4961 39.5582 47.6002 38.8637 47.6002C37.8356 47.5989 36.8844 47.3944 35.9236 47.0077C35.085 46.6693 34.2441 46.1854 33.3973 45.5753C31.9147 44.51 30.4264 43.0572 28.9221 41.4503C28.7836 41.3025 28.6441 41.1501 28.5051 41C28.6056 40.8913 28.7066 40.7804 28.8069 40.6731C29.6545 39.7656 30.4948 38.9034 31.3332 38.1306C32.5904 36.9696 33.8429 36.017 35.0833 35.3793C35.704 35.0595 36.321 34.8159 36.9444 34.6514C37.5683 34.4872 38.1989 34.4005 38.8638 34.4002C39.7896 34.4005 40.6616 34.585 41.4596 34.9185C42.6557 35.4185 43.6823 36.26 44.4044 37.3157C44.7655 37.8433 45.0506 38.4231 45.2454 39.0407C45.4403 39.6586 45.5457 40.3141 45.5457 41.0001C45.5455 41.9144 45.3587 42.7758 45.021 43.5641Z" fill="white"/>
<g opacity="0.3">
<mask id="path-2-inside-1" fill="white">
<path fill-rule="evenodd" clip-rule="evenodd" d="M52.155 16.31C53.3452 16.31 54.31 15.3452 54.31 14.155C54.31 12.9648 53.3452 12 52.155 12C50.9648 12 50 12.9648 50 14.155C50 15.3452 50.9648 16.31 52.155 16.31ZM52.155 20.31C55.5543 20.31 58.31 17.5543 58.31 14.155C58.31 10.7557 55.5543 8 52.155 8C48.7557 8 46 10.7557 46 14.155C46 17.5543 48.7557 20.31 52.155 20.31Z"/>
</mask>
<path fill-rule="evenodd" clip-rule="evenodd" d="M52.155 16.31C53.3452 16.31 54.31 15.3452 54.31 14.155C54.31 12.9648 53.3452 12 52.155 12C50.9648 12 50 12.9648 50 14.155C50 15.3452 50.9648 16.31 52.155 16.31ZM52.155 20.31C55.5543 20.31 58.31 17.5543 58.31 14.155C58.31 10.7557 55.5543 8 52.155 8C48.7557 8 46 10.7557 46 14.155C46 17.5543 48.7557 20.31 52.155 20.31Z" fill="#FC605C"/>
<path d="M50.31 14.155C50.31 13.136 51.136 12.31 52.155 12.31V20.31C55.5543 20.31 58.31 17.5543 58.31 14.155H50.31ZM52.155 16C51.136 16 50.31 15.174 50.31 14.155H58.31C58.31 10.7557 55.5543 8 52.155 8V16ZM54 14.155C54 15.174 53.174 16 52.155 16V8C48.7557 8 46 10.7557 46 14.155H54ZM52.155 12.31C53.174 12.31 54 13.136 54 14.155H46C46 17.5543 48.7557 20.31 52.155 20.31V12.31ZM54.31 14.155C54.31 15.3452 53.3452 16.31 52.155 16.31V24.31C57.7635 24.31 62.31 19.7635 62.31 14.155H54.31ZM52.155 12C53.3452 12 54.31 12.9648 54.31 14.155H62.31C62.31 8.54655 57.7635 4 52.155 4V12ZM50 14.155C50 12.9648 50.9648 12 52.155 12V4C46.5465 4 42 8.54655 42 14.155H50ZM52.155 16.31C50.9648 16.31 50 15.3452 50 14.155H42C42 19.7635 46.5465 24.31 52.155 24.31V16.31Z" fill="white" mask="url(#path-2-inside-1)"/>
</g>
</svg>
