<svg width="60" height="60" viewBox="0 0 60 60" fill="none" xmlns="http://www.w3.org/2000/svg">
<path opacity="0.5" fill-rule="evenodd" clip-rule="evenodd" d="M24.3501 14.9998L24.3501 18.8975C24.3501 19.4497 24.7978 19.8975 25.3501 19.8975L34.593 19.8975C35.1453 19.8975 35.593 19.4497 35.593 18.8975L35.593 14.9998C35.593 14.4475 35.1453 13.9998 34.593 13.9998L25.3501 13.9998C24.7978 13.9998 24.3501 14.4475 24.3501 14.9998ZM20.3501 18.8975C20.3501 21.6589 22.5887 23.8975 25.3501 23.8975L34.593 23.8975C37.3545 23.8975 39.593 21.6589 39.593 18.8975L39.593 14.9998C39.593 12.2384 37.3544 9.99979 34.593 9.99979L25.3501 9.99979C22.5887 9.99979 20.3501 12.2384 20.3501 14.9998L20.3501 18.8975Z" fill="#BECFCF"/>
<path d="M13 48.8486C10.7909 48.8486 9 47.0578 9 44.8486L9 23.3575C9 21.1484 10.7909 19.3575 13 19.3575L47.3723 19.3575C49.5815 19.3575 51.3723 21.1484 51.3723 23.3575L51.3723 44.8486C51.3723 47.0578 49.5814 48.8486 47.3723 48.8486L13 48.8486Z" fill="#F2F6F6" stroke="#BECFCF" stroke-width="4"/>
<path fill-rule="evenodd" clip-rule="evenodd" d="M21.3057 33.5825C21.3052 33.5817 21.3047 33.581 23.0001 32.5199C24.6954 31.4589 24.6949 31.4582 24.6945 31.4574L24.6936 31.456L24.692 31.4535L24.6895 31.4495L24.6869 31.4455C24.6869 31.4455 24.6886 31.4484 24.692 31.4535C24.6999 31.4653 24.7167 31.4897 24.7425 31.5256C24.7942 31.5977 24.881 31.7134 25.0028 31.8583C25.2479 32.15 25.6253 32.5491 26.1328 32.949C27.1412 33.7436 28.63 34.5199 30.6492 34.5199C32.6683 34.5199 34.1571 33.7436 35.1655 32.949C35.673 32.5491 36.0504 32.15 36.2955 31.8583C36.4173 31.7134 36.5041 31.5977 36.5558 31.5256C36.5816 31.4897 36.5985 31.4649 36.6064 31.4531C36.6098 31.448 36.6115 31.4453 36.6115 31.4453L36.6089 31.4495L36.6064 31.4531L36.6047 31.456L36.6038 31.4574C36.6034 31.4582 36.6029 31.4589 38.2983 32.5199C39.9936 33.581 39.9931 33.5817 39.9926 33.5825L39.9893 33.5878L39.984 33.5962L39.9704 33.6174C39.9601 33.6334 39.9471 33.6532 39.9314 33.6766C39.9001 33.7234 39.8582 33.7846 39.8055 33.858C39.7002 34.0047 39.5512 34.2015 39.3579 34.4315C38.9728 34.8899 38.4028 35.4908 37.6412 36.0908C36.1115 37.2963 33.7758 38.5199 30.6492 38.5199C27.5226 38.5199 25.1868 37.2963 23.6571 36.0908C22.8956 35.4908 22.3255 34.8899 21.9404 34.4315C21.7471 34.2015 21.5981 34.0047 21.4928 33.858C21.4401 33.7846 21.3982 33.7234 21.3669 33.6766C21.3512 33.6532 21.3382 33.6334 21.3279 33.6174L21.3143 33.5962L21.309 33.5878L21.3067 33.5842L21.3057 33.5825Z" fill="#FC605C"/>
</svg>
