<svg width="60" height="60" viewBox="0 0 60 60" fill="none" xmlns="http://www.w3.org/2000/svg">
<path d="M21.9296 47.9997H11V37.071L31.2665 16.8047L42.5 27.4296L21.9296 47.9997Z" fill="white"/>
<path opacity="0.3" d="M41.6155 11.1302C42.9912 11.4054 44.3497 12.1247 45.6129 13.3885C46.8759 14.6522 47.5947 16.0107 47.8698 17.3861C48.142 18.7472 47.9532 19.9905 47.616 21.002C47.2815 22.0054 46.7894 22.818 46.3947 23.3703C46.1947 23.6502 46.0122 23.8737 45.8744 24.0327L42.4999 27.4299L31.2476 16.8238L33.5454 14.526L34.7758 13.2991C34.8235 13.2544 34.8878 13.1959 34.9675 13.1268C35.1265 12.9889 35.35 12.8063 35.63 12.6062C36.1825 12.2113 36.9953 11.719 37.9988 11.3843C39.0105 11.0468 40.2541 10.8578 41.6155 11.1302Z" fill="white"/>
<ellipse cx="42" cy="45" rx="3" ry="3" transform="rotate(-90 42 45)" fill="white"/>
</svg>
