<svg width="60" height="60" viewBox="0 0 60 60" fill="none" xmlns="http://www.w3.org/2000/svg">
<path opacity="0.5" d="M11 48C7.68629 48 5 45.3137 5 42L5 19C5 15.6863 7.68629 13 11 13L49 13C52.3137 13 55 15.6863 55 19L55 42C55 45.3137 52.3137 48 49 48L11 48Z" fill="#F2F6F6" stroke="#BECFCF" stroke-width="4"/>
<path d="M15 26C13.3431 26 12 24.6569 12 23C12 21.3431 13.3431 20 15 20C16.6569 20 18 21.3431 18 23C18 24.6569 16.6569 26 15 26Z" fill="#FC605C"/>
<path d="M24.9999 26C23.343 26 21.9999 24.6569 21.9999 23C21.9999 21.3431 23.343 20 24.9999 20C26.6567 20 27.9999 21.3431 27.9999 23C27.9999 24.6569 26.6567 26 24.9999 26Z" fill="#BECFCF"/>
<path d="M34.9998 26C33.3429 26 31.9998 24.6569 31.9998 23C31.9998 21.3431 33.3429 20 34.9998 20C36.6566 20 37.9998 21.3431 37.9998 23C37.9998 24.6569 36.6566 26 34.9998 26Z" fill="#BECFCF"/>
</svg>
