<svg width="60" height="60" viewBox="0 0 60 60" fill="none" xmlns="http://www.w3.org/2000/svg">
<path d="M11 49C6.58172 49 3 45.4183 3 41L3 18C3 13.5817 6.58172 10 11 10L49 10C53.4183 10 57 13.5817 57 18L57 41C57 45.4183 53.4183 49 49 49L11 49Z" fill="white"/>
<path d="M15 25C13.3431 25 12 23.6569 12 22C12 20.3431 13.3431 19 15 19C16.6569 19 18 20.3431 18 22C18 23.6569 16.6569 25 15 25Z" fill="#FC605C"/>
<path opacity="0.3" d="M24.9999 25C23.343 25 21.9999 23.6569 21.9999 22C21.9999 20.3431 23.343 19 24.9999 19C26.6567 19 27.9999 20.3431 27.9999 22C27.9999 23.6569 26.6567 25 24.9999 25Z" fill="#FC605C"/>
<path opacity="0.3" d="M34.9998 25C33.3429 25 31.9998 23.6569 31.9998 22C31.9998 20.3431 33.3429 19 34.9998 19C36.6566 19 37.9998 20.3431 37.9998 22C37.9998 23.6569 36.6566 25 34.9998 25Z" fill="#FC605C"/>
</svg>
