<svg width="32" height="32" viewBox="0 0 32 32" fill="none" xmlns="http://www.w3.org/2000/svg">
<rect width="32" height="32" fill="white"/>
<path d="M11.2601 11.7034V13.9153H12.8305C13.2395 13.9153 13.5749 13.822 13.8366 13.6356C14.0984 13.4322 14.2292 13.1271 14.2292 12.7203C14.2292 12.3814 14.0902 12.1271 13.8121 11.9576C13.534 11.7881 13.1659 11.7034 12.7078 11.7034H11.2601ZM11.2601 17.8051V20.2458H13.0023C13.4604 20.2458 13.8284 20.1441 14.1065 19.9407C14.401 19.7203 14.5482 19.4068 14.5482 19C14.5482 18.7627 14.4828 18.5678 14.3519 18.4153C14.2374 18.2627 14.0902 18.1441 13.9102 18.0593C13.7303 17.9576 13.534 17.8898 13.3213 17.8559C13.125 17.822 12.9369 17.8051 12.7569 17.8051H11.2601ZM17.1739 15.6441C17.5828 15.7458 17.9836 15.9153 18.3763 16.1525C18.7689 16.3729 19.1206 16.661 19.4314 17.0169C19.7422 17.3559 19.9876 17.7542 20.1676 18.2119C20.3475 18.6695 20.4375 19.178 20.4375 19.7373C20.4375 20.7203 20.2412 21.5508 19.8486 22.2288C19.4723 22.8898 18.9652 23.4322 18.3272 23.8559C17.7055 24.2627 16.9857 24.5593 16.1678 24.7458C15.3662 24.9153 14.5401 25 13.6894 25H5.8125V7H12.9532C13.6567 7 14.401 7.05932 15.1862 7.17797C15.9878 7.27966 16.724 7.5 17.3947 7.83898C18.0654 8.16102 18.6216 8.64407 19.0633 9.28813C19.505 9.91525 19.7259 10.7458 19.7259 11.7797C19.7259 12.7458 19.4887 13.5424 19.0143 14.1695C18.5562 14.7966 17.9427 15.2627 17.1739 15.5678V15.6441Z" fill="black"/>
<circle cx="24.375" cy="22.1875" r="2.8125" fill="#FC605C"/>
</svg>
