<svg width="307" height="96" viewBox="0 0 307 96" fill="none" xmlns="http://www.w3.org/2000/svg">
<g clip-path="url(#clip0)">
<path d="M89.1635 64.2663C88.3626 63.733 87.5618 63.4663 86.4939 63.4663C85.96 63.4663 85.6931 63.4663 85.1592 63.733C84.6252 63.9997 84.0913 63.9997 83.8244 63.9997C83.5574 64.2663 83.2905 64.533 83.0235 64.7997C82.7565 65.333 82.7565 65.8663 82.7565 66.3997C82.7565 66.933 83.0235 67.1997 83.2905 67.4663C83.5574 67.733 84.0913 67.9997 84.3583 68.2663C84.8922 68.533 85.4261 68.533 85.96 68.7997C86.4939 69.0663 87.2948 69.0663 87.8287 69.333C88.6296 69.5997 89.1635 69.5997 89.6974 69.8663C90.2313 70.133 90.7652 70.3997 91.2992 70.6663C91.8331 70.933 92.1 71.4663 92.367 71.9997C92.6339 72.533 92.9009 73.0663 92.9009 74.133C92.9009 74.933 92.6339 75.733 92.367 76.2663C92.1 76.7997 91.5661 77.333 90.7652 77.8663C90.2313 78.133 89.4305 78.6663 88.6296 78.6663C87.8287 78.6663 87.0279 78.933 86.4939 78.933C85.6931 78.933 84.6252 78.6663 84.0913 78.6663C83.2905 78.3997 82.4896 78.133 81.9557 77.5997C81.4218 77.0663 80.8878 76.533 80.6209 75.733C80.087 74.6663 80.087 73.8663 80.087 72.7997H82.2226C82.2226 73.5997 82.4896 74.133 82.4896 74.3997C82.7565 74.933 83.0235 75.1997 83.5574 75.4663C84.0913 75.733 84.3583 75.9997 85.1592 76.2663C85.6931 76.533 86.227 76.533 87.0278 76.533C87.5618 76.533 88.0957 76.533 88.6296 76.2663C89.1635 76.2663 89.4305 75.9997 89.9644 75.733C90.2313 75.4663 90.7652 75.1997 91.0322 74.933C91.2991 74.6663 91.2992 74.133 91.2992 73.5997C91.2992 73.0663 91.0322 72.533 90.7652 72.2663C90.4983 71.9997 89.9644 71.733 89.6974 71.4663C89.1635 71.1997 88.6296 71.1997 88.0957 70.933C87.5618 70.6663 86.7609 70.6663 86.227 70.3997C85.4261 70.133 84.8922 70.133 84.3583 69.8663C83.8244 69.5997 83.2905 69.333 82.7565 69.0663C82.2226 68.7997 81.9557 68.2663 81.6887 67.9997C81.4218 67.4663 81.1548 66.933 81.1548 66.133C81.1548 65.333 81.4218 64.533 81.6887 63.9997C81.9557 63.4663 82.4896 62.933 83.0235 62.3997C83.5574 62.133 84.0913 61.5997 84.8922 61.5997C85.6931 61.333 86.227 61.333 87.0278 61.333C87.8287 61.333 88.6296 61.333 89.4305 61.5997C90.2313 61.8663 90.7652 62.133 91.2992 62.3997C91.8331 62.933 92.367 63.4663 92.6339 63.9997C92.9009 64.7997 93.1679 65.333 93.1679 66.3997H91.0322C90.2313 65.5997 89.6974 64.7997 89.1635 64.2663Z" fill="#CCCCCC"/>
<path d="M108.384 62.1328V70.1328L116.66 62.1328H119.33L112.656 68.5328L119.597 78.1328H116.927L111.054 70.1328L108.384 72.5328V78.1328H106.249V62.1328H108.384Z" fill="#CCCCCC"/>
<path d="M138.284 78.1328H136.148V71.7328L130.008 62.1328H132.41L137.216 69.8662L142.021 62.1328H144.424L138.284 71.7328V78.1328Z" fill="#CCCCCC"/>
<path d="M159.106 62.1328V70.1328L167.382 62.1328H170.051L163.377 68.5328L170.318 78.1328H167.649L161.776 70.1328L159.106 72.5328V78.1328H156.97V62.1328H159.106Z" fill="#CCCCCC"/>
<path d="M184.734 62.1328V78.1328H182.598V62.1328H184.734Z" fill="#CCCCCC"/>
<path d="M201.552 62.1328V76.2662H210.095V78.1328H199.417V62.1328H201.552Z" fill="#CCCCCC"/>
<path d="M223.71 62.1328V76.2662H232.252V78.1328H221.574V62.1328H223.71Z" fill="#CCCCCC"/>
<path d="M255.744 62.1328V63.9995H246.668V69.0661H254.943V70.9328H246.668V76.5328H255.744V78.3995H244.532V62.3995H255.744V62.1328Z" fill="#CCCCCC"/>
<path d="M276.567 62.1328C278.169 62.1328 279.237 62.3995 280.037 63.1995C280.838 63.9995 281.372 65.0661 281.372 66.1328C281.372 67.1995 281.105 67.9995 280.571 68.7995C280.037 69.5995 279.503 70.1328 278.436 70.3995C278.97 70.3995 279.236 70.6661 279.503 70.9328C279.77 71.1995 280.037 71.4661 280.304 71.7328C280.571 71.9995 280.571 72.2661 280.571 72.7995C280.571 73.0661 280.838 73.5995 280.838 73.8661C280.838 74.1328 280.838 74.6661 280.838 74.9328C280.838 75.1995 280.838 75.7328 281.105 75.9995C281.105 76.2661 281.372 76.7995 281.372 77.0661C281.372 77.3328 281.639 77.8661 281.906 78.1328H279.77C279.503 77.8661 279.503 77.8661 279.503 77.3328C279.503 77.0661 279.503 76.7995 279.503 76.2661C279.503 75.7328 279.503 75.4661 279.503 75.1995C279.503 74.9328 279.503 74.3995 279.237 74.1328C279.237 73.8661 278.97 73.3328 278.97 73.0661C278.97 72.7995 278.703 72.2661 278.436 72.2661C278.169 71.9995 277.902 71.7328 277.635 71.7328C277.368 71.7328 276.834 71.4661 276.3 71.4661H271.228V78.3995H269.092V62.3995H276.567V62.1328ZM277.101 69.3328C277.635 69.3328 277.902 69.0661 278.169 68.7995C278.436 68.5328 278.703 68.2661 278.97 67.9995C279.237 67.7328 279.237 67.1995 279.237 66.6661C279.237 65.8661 278.97 65.0661 278.436 64.5328C277.902 63.9995 277.368 63.7328 276.3 63.7328H270.961V69.3328H275.499C276.3 69.3328 276.567 69.3328 277.101 69.3328Z" fill="#CCCCCC"/>
<path d="M303.263 64.2662C302.462 63.7329 301.661 63.4662 300.593 63.4662C300.059 63.4662 299.792 63.4662 299.258 63.7329C298.724 63.7329 298.457 63.9995 298.19 64.2662C297.923 64.5329 297.656 64.7995 297.39 65.0662C297.123 65.3329 297.123 65.8662 297.123 66.3995C297.123 66.9329 297.39 67.1995 297.656 67.4662C297.923 67.7329 298.457 67.9995 298.724 68.2662C299.258 68.5329 299.792 68.5329 300.326 68.7995C300.86 69.0662 301.661 69.0662 302.195 69.3329C302.996 69.5995 303.53 69.5995 304.063 69.8662C304.597 70.1329 305.131 70.3995 305.665 70.6662C306.199 70.9329 306.466 71.4662 306.733 71.9995C307 72.5329 307.267 73.0662 307.267 74.1329C307.267 74.9329 307 75.7329 306.733 76.2662C306.466 76.7995 305.932 77.3329 305.131 77.8662C304.597 78.1329 303.796 78.6662 302.996 78.6662C302.195 78.6662 301.394 78.9329 300.86 78.9329C300.059 78.9329 298.991 78.6662 298.457 78.6662C297.656 78.3995 296.856 78.1329 296.322 77.5995C295.788 77.0662 295.254 76.5329 294.987 75.7329C294.72 74.9329 294.453 74.1329 294.453 73.3329H296.589C296.589 74.1329 296.856 74.6662 296.856 74.9329C297.123 75.4662 297.39 75.7329 297.923 75.9995C298.457 76.2662 298.724 76.5329 299.525 76.7995C300.059 77.0662 300.593 77.0662 301.394 77.0662C301.928 77.0662 302.462 77.0662 302.996 76.7995C303.53 76.5329 303.796 76.5329 304.33 76.2662C304.597 75.9995 305.131 75.7329 305.398 75.4662C305.665 75.1995 305.665 74.6662 305.665 74.1329C305.665 73.5995 305.398 73.0662 305.131 72.7995C304.864 72.5329 304.33 72.2662 304.063 71.9995C303.53 71.7329 302.996 71.7329 302.462 71.4662C301.928 71.1995 301.127 71.1995 300.593 70.9329C299.792 70.6662 299.258 70.6662 298.724 70.3995C298.19 70.1329 297.656 69.8662 297.123 69.5995C296.589 69.3329 296.322 68.7995 296.055 68.5329C295.788 67.9995 295.521 67.4662 295.521 66.6662C295.521 65.8662 295.788 65.0662 296.055 64.5329C296.322 63.9995 296.856 63.4662 297.39 62.9329C297.923 62.6662 298.457 62.1329 299.258 62.1329C300.059 61.8662 300.593 61.8662 301.394 61.8662C302.195 61.8662 302.996 61.8662 303.796 62.1329C304.597 62.3995 305.131 62.6662 305.665 62.9329C306.199 63.4662 306.733 63.9995 307 64.5329C307.267 65.3329 307.534 65.8662 307.534 66.9329H305.398C304.33 65.5995 303.796 64.7995 303.263 64.2662Z" fill="#CCCCCC"/>
<path d="M24.8269 41.0667C36.1795 41.0667 45.3825 31.8736 45.3825 20.5333C45.3825 9.19309 36.1795 0 24.8269 0C13.4743 0 4.27124 9.19309 4.27124 20.5333C4.27124 31.8736 13.4743 41.0667 24.8269 41.0667Z" fill="#CCCCCC"/>
<path d="M49.9209 57.8663L37.3739 45.333L24.827 57.8663L12.547 45.333L0 57.8663L12.547 70.133L0 82.6663L12.547 94.933L24.827 82.6663L37.3739 94.933L49.9209 82.6663L37.3739 70.133L49.9209 57.8663Z" fill="#CCCCCC"/>
</g>
<defs>
<clipPath id="clip0">
<rect width="307" height="96" fill="white"/>
</clipPath>
</defs>
</svg>
