<svg width="265" height="49" viewBox="0 0 265 49" fill="none" xmlns="http://www.w3.org/2000/svg">
<path d="M13.8366 0.957438L18.666 6.46741C18.9287 6.78314 19.1965 6.89301 19.6183 6.89301H29.7507C30.1776 6.89301 30.4415 6.78314 30.7042 6.46741L35.5337 0.957438C35.9555 0.475015 35.7976 0.000170426 35.108 0.000170426H28.2706C27.8399 0.000170426 27.5722 0.158031 27.3082 0.475015L25.2433 3.44911H24.1231L22.0582 0.475015C21.7943 0.158031 21.5291 0.000170426 21.0517 0.000170426H14.2635C13.5676 0.000170426 13.4198 0.475015 13.8366 0.957438ZM103.231 28.6387V29.1703C103.231 47.6767 106.264 48.7969 128.482 48.7969C150.707 48.7969 153.731 47.6767 153.731 29.1135V28.6387C153.731 10.1323 150.707 9.01592 128.482 9.01592C106.264 9.01592 103.231 10.1323 103.231 28.6387ZM100.981 47.044L79.8686 26.4109L99.7029 10.765C100.29 10.342 100.072 9.81028 99.3303 9.81028H86.3891C86.0203 9.81028 85.7526 9.91636 85.4356 10.1803L65.1758 26.3629V10.6059C65.1758 10.0793 64.9104 9.81028 64.38 9.81028H54.5154C53.9837 9.81028 53.716 10.0793 53.716 10.6059V47.2018C53.716 47.7335 53.9837 47.9975 54.5154 47.9975H64.3814C64.9118 47.9975 65.1758 47.7335 65.1758 47.2018V37.9752L71.1683 33.252L85.6995 47.5757C86.0203 47.8914 86.2843 47.9975 86.7048 47.9975H100.605C101.294 47.9975 101.509 47.5226 100.981 47.044ZM182.912 9.81028H161.75C161.222 9.81028 160.95 10.0793 160.95 10.6059V47.2018C160.95 47.7335 161.222 47.9975 161.75 47.9975H182.912C205.564 47.9975 208.532 46.8811 208.532 29.0605V28.7447C208.532 10.9229 205.564 9.81028 182.912 9.81028ZM264.888 47.044L246.59 10.395C246.429 9.97319 246.11 9.81028 245.688 9.81028H229.461C229.029 9.81028 228.713 9.97319 228.555 10.395L210.255 47.044C209.986 47.6287 210.206 47.9975 210.834 47.9975H221.393C221.814 47.9975 222.137 47.8396 222.292 47.4127L225.054 42.0038H250.091L252.845 47.4127C253.009 47.8396 253.324 47.9975 253.752 47.9975H264.304C264.941 47.9975 265.154 47.6287 264.888 47.044ZM141.424 28.6387V29.1703C141.424 39.8859 141 40.0438 128.482 40.0438C115.964 40.0438 115.537 39.8859 115.537 29.1703V28.6387C115.537 17.9256 115.964 17.7677 128.482 17.7677C141 17.7677 141.424 17.9256 141.424 28.6387ZM196.493 28.6387V29.1703C196.493 38.9817 195.693 39.3012 182.969 39.3012H172.466V18.5065H182.969C195.693 18.5065 196.493 18.8273 196.493 28.6387ZM246.057 33.9984H229.084L236.883 18.5583H238.261L246.057 33.9984ZM1.2705 48.0543C6.89431 48.3132 16.0644 48.5771 21.3624 48.5771C44.4928 48.5771 47.2523 48.5291 47.2523 35.9596C47.2523 26.0409 44.3388 25.2466 32.0846 24.8778L17.8704 24.4509C11.3499 24.2362 11.24 23.5505 11.24 20.6332C11.24 17.6099 12.0357 17.6099 27.682 17.6099C30.6474 17.6099 40.0903 17.7677 45.0814 17.8738C45.6042 17.8738 45.877 17.6099 45.877 17.0782V10.6059C45.877 10.0793 45.6042 9.81028 45.1294 9.76229C40.1951 9.49077 32.1376 9.22683 26.3547 9.22683C3.65617 9.22683 0 9.65368 0 21.3707C0 31.3981 2.22275 32.7254 16.7552 33.204L29.7987 33.6258C35.9024 33.8367 36.0123 34.578 36.0123 36.8588C36.0123 39.992 35.7446 40.1499 21.3144 40.1499C14.5792 40.1499 7.63185 39.8859 1.32228 39.6713C0.791854 39.6182 0.527903 39.8859 0.527903 40.4138V47.2018C0.527903 47.7335 0.791854 47.9975 1.2705 48.0543Z" fill="#CCCCCC"/>
</svg>
