<svg width="300" height="40" viewBox="0 0 300 40" fill="none" xmlns="http://www.w3.org/2000/svg">
<path fill-rule="evenodd" clip-rule="evenodd" d="M159.66 22.1724C157.565 23.7424 157.79 26.9607 160.035 28.2324C161.305 28.9057 162.578 29.1307 164 29.1307H172.228H172.528V20.9757H172.08H163.925C162.428 20.9757 160.932 21.2741 159.66 22.1724ZM172.603 17.9074C172.603 15.2891 172.603 12.6707 172.678 9.90241H172.228C169.387 9.90241 166.618 9.90241 163.775 9.97741C162.503 9.97741 161.305 10.2757 160.258 11.1741C158.762 12.4457 158.612 15.5891 160.782 16.8591C161.83 17.5341 162.952 17.8324 164.148 17.8324C166.917 17.9074 169.612 17.9074 172.378 17.9074H172.603ZM154.647 24.6407C154.872 22.0974 156.292 20.5274 158.687 19.4791C158.912 19.4041 159.062 19.2541 159.285 19.1041C159.062 19.0291 158.912 18.8057 158.687 18.7324C156.442 17.6841 155.47 15.8874 155.47 13.4941C155.545 10.5757 157.117 8.33074 160.035 7.43241C161.007 7.13574 162.055 7.06074 163.1 6.83574C163.175 6.83574 163.325 6.76074 163.4 6.76074H176.12C176.195 6.91074 176.195 7.06074 176.195 7.20908V31.8241V32.3474H175.745H164.073C161.98 32.3474 159.96 32.0491 158.09 31.0757C155.695 29.8791 154.347 27.3357 154.647 24.6407Z" fill="#CCCCCC"/>
<path fill-rule="evenodd" clip-rule="evenodd" d="M131.603 6.75957C131.603 6.90957 131.678 7.13457 131.678 7.28124V21.1979C131.678 22.3212 131.753 23.4446 132.053 24.4912C132.726 26.7346 133.998 28.3062 136.241 29.0546C137.663 29.5029 139.01 29.5779 140.506 29.3546C142.526 29.0546 144.098 28.1562 145.22 26.4362C146.193 24.9396 146.493 23.2946 146.493 21.4979V6.68457H150.008V21.3479C150.008 22.7696 149.858 24.2662 149.41 25.6146C148.513 28.4562 146.79 30.6246 144.098 31.8229C141.48 33.0196 138.711 33.0946 135.943 32.4962C133.098 31.8229 130.93 30.1779 129.508 27.5579C128.535 25.6879 128.163 23.6679 128.163 21.4979V6.68457C129.283 6.75957 130.481 6.75957 131.603 6.75957Z" fill="#CCCCCC"/>
<path fill-rule="evenodd" clip-rule="evenodd" d="M191.906 16.785C192.654 17.5333 193.328 18.2816 194.151 19.105C194.301 18.955 194.374 18.8066 194.524 18.6566C198.116 14.84 201.708 11.1 205.298 7.28329C205.748 6.83496 206.121 6.83496 206.646 6.90996V32.2733H203.203V14.54L202.829 14.915C200.209 17.7583 197.518 20.5266 194.899 23.37C194.524 23.8183 193.851 23.8183 193.476 23.37C191.383 21.1983 189.363 18.955 187.268 16.785C186.593 16.0383 185.921 15.29 185.098 14.465V32.2733H181.656V6.83496C182.029 6.98496 182.554 6.90996 182.778 7.13496C185.771 10.3516 188.838 13.5683 191.906 16.785Z" fill="#CCCCCC"/>
<path fill-rule="evenodd" clip-rule="evenodd" d="M226.846 25.0146C226.996 24.7896 227.071 24.5646 227.146 24.3412C228.716 20.8996 230.286 17.5329 231.859 14.0912C231.934 13.9412 232.084 13.7179 232.232 13.7179C232.381 13.7179 232.531 13.9412 232.606 14.0912C233.429 15.8129 234.177 17.5329 235.001 19.2529C235.899 21.1979 236.722 23.0696 237.619 25.0146H226.846ZM219.439 31.8979L219.214 32.3462H223.029C223.104 32.3462 223.254 32.1979 223.329 32.0479C223.927 30.8496 224.526 29.7279 225.051 28.5296C225.201 28.3062 225.349 28.1562 225.572 28.1562H238.742C239.041 28.1562 239.191 28.2312 239.339 28.5296C239.937 29.7279 240.462 30.8496 241.061 32.0479C241.211 32.2712 241.361 32.4212 241.584 32.4212H245.101C245.026 32.1979 244.951 32.0479 244.876 31.9729C240.837 23.8162 236.797 15.6629 232.681 7.50624C232.606 7.28124 232.531 7.05957 232.159 7.05957C231.859 7.05957 231.709 7.1329 231.559 7.43124C229.539 11.4729 227.519 15.5129 225.572 19.5529C223.552 23.5179 221.459 27.7079 219.439 31.8979Z" fill="#CCCCCC"/>
<mask id="mask0" mask-type="alpha" maskUnits="userSpaceOnUse" x="0" y="0" width="300" height="40">
<path d="M0 39.48H300V0H0V39.48Z" fill="#CCCCCC"/>
</mask>
<g mask="url(#mask0)">
<path fill-rule="evenodd" clip-rule="evenodd" d="M212.632 32.2725H215.998V6.90918H212.632V32.2725Z" fill="#CCCCCC"/>
<path fill-rule="evenodd" clip-rule="evenodd" d="M0 9.97546V6.75879H18.9283C18.9283 6.83379 19.0033 6.83379 19.0033 6.90879V8.18046V31.9721C19.0033 32.1221 18.9283 32.1971 18.9283 32.3471H0V29.1288H15.4117V21.2721H2.02V18.2055H15.4117V9.97546H0Z" fill="#CCCCCC"/>
<path fill-rule="evenodd" clip-rule="evenodd" d="M25.6626 12.2943C24.9892 11.3976 24.3142 10.4993 23.6426 9.60094C23.8676 9.45261 24.0176 9.22761 24.1676 9.07761C24.6142 8.77927 24.9892 8.40427 25.4376 8.17927C28.8059 6.23427 32.3959 5.93594 36.0609 6.75927C38.9792 7.43094 41.3742 8.92761 43.1692 11.2476C45.7126 14.5393 46.3876 18.3559 45.7126 22.3959C45.3392 24.7893 44.2926 26.8843 42.6459 28.7543C40.6259 30.9993 38.1559 32.3459 35.1642 32.8693C34.5659 32.9443 33.9659 33.0193 33.2942 33.0926H31.3476C31.2726 33.0926 31.1976 33.0193 31.1242 33.0193C29.4776 32.8693 27.9076 32.4959 26.4859 31.8226C25.4376 31.2976 24.4642 30.6993 23.6426 29.8776C24.3142 28.9793 24.9892 28.0826 25.6626 27.1843C29.8526 30.7743 35.8359 30.6993 39.5792 26.9593C43.1692 23.3693 43.3942 16.7826 39.7276 12.7443C36.5859 9.22761 30.3009 8.25427 25.6626 12.2943Z" fill="#CCCCCC"/>
<path fill-rule="evenodd" clip-rule="evenodd" d="M54.616 25.0901C54.766 24.9401 54.916 24.8651 54.991 24.7151C60.7526 18.8785 66.5876 13.1185 72.3493 7.28181C72.7959 6.83514 73.2459 6.76014 73.7693 6.91014V32.4968H70.2543V14.2401C70.1793 14.1668 70.1793 14.1668 70.1043 14.0918C70.0293 14.2401 69.9543 14.3901 69.8793 14.4651C64.0426 20.3768 58.2826 26.2118 52.521 32.0485C52.0726 32.4968 51.6243 32.5718 51.101 32.4968V6.91014H54.616V25.0901Z" fill="#CCCCCC"/>
<path fill-rule="evenodd" clip-rule="evenodd" d="M84.9918 25.09C85.1418 24.79 85.2168 24.5666 85.3668 24.3416C86.9368 20.9 88.5085 17.4583 90.0802 14.0166C90.1552 13.8683 90.3052 13.7183 90.4535 13.7183C90.6035 13.7183 90.7535 13.8683 90.8285 14.0166C92.4735 17.6833 94.1935 21.3483 95.8418 25.015C92.2485 25.09 88.6585 25.09 84.9918 25.09ZM79.0068 29.055C78.4835 30.1783 77.8835 31.3 77.3618 32.4216H81.4018C81.4018 32.3466 81.4768 32.1983 81.4768 32.1233C82.0735 30.925 82.6718 29.8033 83.2718 28.605C83.4218 28.3816 83.5702 28.3066 83.7952 28.3066H97.1118C97.4118 28.3066 97.5618 28.3816 97.6368 28.68C98.2335 29.9533 98.9085 31.225 99.5818 32.4966H103.472C103.172 31.8983 102.947 31.375 102.65 30.775C98.7585 22.845 94.8685 14.9883 91.0535 7.20829C90.9785 7.05996 90.9785 6.98496 90.9035 6.83496H90.1552C86.4152 14.24 82.7468 21.6483 79.0068 29.055Z" fill="#CCCCCC"/>
<path fill-rule="evenodd" clip-rule="evenodd" d="M118.361 28.6047V7.43134V6.83301H121.801C121.801 6.90801 121.876 6.90801 121.876 6.98301V8.25467V32.0463C121.876 32.1963 121.801 32.2713 121.801 32.4213H105.641V29.203H118.361V28.6047Z" fill="#CCCCCC"/>
<path fill-rule="evenodd" clip-rule="evenodd" d="M300 14.4143L294.753 5.32431L285.528 10.6493V0.000976562H275.033V10.6493L265.808 5.32431L260.562 14.4143L269.783 19.7393L260.562 25.066L265.808 34.156L275.033 28.8293V39.4793H285.528V28.8293L294.753 34.156L300 25.066L290.777 19.7393L300 14.4143Z" fill="#CCCCCC"/>
</g>
</svg>
