<svg width="1359" height="676" viewBox="0 0 1359 676" fill="none" xmlns="http://www.w3.org/2000/svg">
<path d="M0 0H106C106.03 104.33 105.95 208.65 106.03 312.97C169.01 313.02 231.99 313.03 294.98 312.97C295.32 208.65 294.42 104.31 295.42 0H401.46C401.78 8.66 401.97 17.33 402.02 26C402.01 121.66 401.95 217.31 402.03 312.97C427.68 313.09 453.33 312.9 478.98 313.03C479.03 342.68 479.05 372.33 478.97 401.98C348.98 402.04 218.99 401.98 89 402C59.33 401.82 29.66 402.45 0 401.61V0Z" fill="#CCCCCC"/>
<path d="M479 0H585C585.04 49.33 584.93 98.65 585.03 147.97C648.01 148.02 710.99 148.03 773.98 147.97C774.06 98.65 773.96 49.32 774 0H880C879.98 133.99 880.03 267.98 879.98 401.97C772.07 401.85 664.15 402.37 556.24 401.71C555.82 372.22 555.78 342.72 556.29 313.24C628.85 312.64 701.41 313.22 773.97 312.97C774.06 287.33 774.04 261.68 773.96 236.04C675.65 235.9 577.35 236.1 479.04 235.96C478.93 157.31 479.04 78.65 479 0Z" fill="#CCCCCC"/>
<path d="M957.54 0H1058.78C1087.11 49.66 1114.15 100.06 1142.09 149.94C1147.55 159.28 1151.66 169.46 1158.34 178.05C1186.25 127.72 1214.07 77.31 1241.9 26.93C1246.96 17.94 1251.67 8.74 1257.18 0H1359V401.46C1323.69 402.57 1288.35 401.8 1253.03 401.98C1252.74 330.86 1253.43 259.73 1252.7 188.6C1244.43 201.63 1237.53 215.45 1229.79 228.78C1217.76 250.48 1205.47 272.03 1193.62 293.82C1169.87 294.17 1146.13 294.14 1122.39 293.8C1102.6 258.8 1083.61 223.32 1063.23 188.66C1062.65 259.76 1063.22 330.86 1062.96 401.96C1027.74 401.9 992.52 402.36 957.31 401.69C956.57 336.46 957.21 271.23 957 206C957.34 137.33 956.29 68.65 957.54 0Z" fill="#CCCCCC"/>
<path d="M0 489C427.67 489 855.33 488.99 1283 489.01C1308.33 489.11 1333.67 488.55 1359 489.55V500.99C906 501.01 453 500.99 0 501V489Z" fill="#CCCCCC"/>
<path d="M723 564.01C727.64 563.97 732.33 563.98 737 564.01C737 569.33 737 574.66 737 579.99C732.3 579.98 727.67 580.02 723 579.99C722.98 574.65 722.98 569.33 723 564.01Z" fill="#CCCCCC"/>
<path d="M750 564.01C754.64 563.97 759.33 563.98 764 564.01C764 569.33 764 574.66 764 579.99C759.3 579.98 754.67 580.02 750 579.99C749.98 574.65 749.98 569.33 750 564.01Z" fill="#CCCCCC"/>
<path d="M603.3 588.22C609.12 588.18 614.94 588.2 620.78 588.26C621.09 606.28 620.96 624.32 621.23 642.35C631.11 627.05 640.26 611.29 649.74 595.74C651.54 593.29 652.82 590.22 655.44 588.52C660.07 587.27 664.98 588.29 669.74 588.03C670.32 617.35 669.87 646.68 670 676H652.53C651.83 657.93 652.01 639.84 651.88 621.77C640.24 639.53 630.17 658.27 618.49 676H603C603.14 646.74 602.64 617.48 603.3 588.22Z" fill="#CCCCCC"/>
<path d="M735.03 588C740.66 587.99 746.3 587.99 751.97 588C752.08 617.33 751.96 646.66 752 676H735C735.04 646.66 734.92 617.33 735.03 588Z" fill="#CCCCCC"/>
<path d="M817.29 588.23C834.64 588.94 853.84 584.58 869.88 593.1C882.8 601.5 882.62 621.91 870.56 630.99C874.26 635.2 878.67 639.24 880.31 644.78C881.64 652.1 880.74 660.13 876.23 666.25C872.06 671.38 865.82 674.3 859.55 676H817C817.14 646.74 816.65 617.48 817.29 588.23ZM835 624.09C842.2 623.75 849.69 624.7 856.7 622.7C864.78 620.07 863.71 606.06 855.38 604.62C848.61 603.8 841.78 603.96 835 603.8C834.97 610.56 834.97 617.32 835 624.09ZM834.99 660.08C842.42 659.97 849.93 660.35 857.34 659.32C864.54 657.33 865.12 646.32 860.29 641.69C852.5 637.66 843.41 639.21 835 638.87C834.98 645.93 834.98 653 834.99 660.08Z" fill="#CCCCCC"/>
<path d="M478.03 589C483.66 588.99 489.3 588.99 494.95 589C494.99 601.45 494.99 613.91 495.24 626.37C505.27 613.99 515.29 601.59 525.18 589.09C532.23 589.01 539.28 589.02 546.34 589.09C537.32 600.78 527.52 611.84 518.23 623.31C528.19 641.1 538.57 658.7 549.36 676H528.57C521.1 662.89 514.2 649.46 506.35 636.57C502.79 640.85 498.47 644.75 495.91 649.76C494.49 658.4 495.01 667.25 494.8 676H478C478.04 647 477.92 618 478.03 589Z" fill="#CCCCCC"/>
</svg>
