<svg width="604" height="129" viewBox="0 0 604 129" fill="none" xmlns="http://www.w3.org/2000/svg">
<path d="M213.2 74.2996L209.6 84.4996H209.3C208.7 82.1996 207.6 78.6996 205.8 74.4996L186.5 25.9996H167.6V103.3H180.1V55.5996C180.1 52.5996 180.1 49.1996 180 44.9996C179.9 42.8996 179.7 41.2996 179.6 40.0996H179.9C180.5 43.0996 181.2 45.2996 181.7 46.6996L204.9 103.1H213.7L236.7 46.1996C237.2 44.8996 237.7 42.2996 238.2 40.0996H238.5C238.2 45.7996 238 50.8996 237.9 53.9996V103H251.2V25.7996H233L213.2 74.2996V74.2996ZM263.8 47.5996H276.8V103H263.8V47.5996ZM270.4 24.1996C268.2 24.1996 266.4 24.9996 264.9 26.3996C263.4 27.7996 262.6 29.5996 262.6 31.7996C262.6 33.8996 263.4 35.6996 264.9 37.0996C266.4 38.4996 268.2 39.1996 270.4 39.1996C272.6 39.1996 274.5 38.3996 275.9 37.0996C277.4 35.6996 278.2 33.8996 278.2 31.7996C278.2 29.6996 277.4 27.8996 275.9 26.3996C274.6 24.9996 272.7 24.1996 270.4 24.1996V24.1996ZM322.9 47.0996C320.5 46.5996 318 46.2996 315.6 46.2996C309.7 46.2996 304.3 47.5996 299.8 50.1996C295.3 52.7996 291.7 56.3996 289.4 60.8996C287 65.4996 285.8 70.7996 285.8 76.8996C285.8 82.1996 287 86.8996 289.3 91.1996C291.6 95.3996 294.8 98.7996 299.1 101.1C303.2 103.4 308 104.6 313.4 104.6C319.6 104.6 324.9 103.3 329.1 100.9L329.2 100.8V88.7996L328.7 89.1996C326.8 90.5996 324.6 91.7996 322.4 92.4996C320.1 93.2996 318 93.6996 316.2 93.6996C311 93.6996 306.9 92.1996 304 88.8996C301 85.6996 299.5 81.2996 299.5 75.7996C299.5 70.0996 301 65.5996 304.1 62.2996C307.2 58.9996 311.3 57.2996 316.3 57.2996C320.5 57.2996 324.8 58.6996 328.7 61.4996L329.2 61.8996V49.1996L329.1 49.0996C327.4 48.3996 325.5 47.5996 322.9 47.0996V47.0996ZM365.8 46.6996C362.6 46.6996 359.6 47.6996 357 49.7996C354.8 51.5996 353.3 54.1996 352 57.2996H351.9V47.5996H338.9V103H351.9V74.6996C351.9 69.8996 352.9 65.8996 355.1 62.9996C357.3 59.9996 360.1 58.4996 363.5 58.4996C364.7 58.4996 365.9 58.7996 367.4 58.9996C368.8 59.3996 369.8 59.7996 370.5 60.2996L371 60.6996V47.6996L370.7 47.5996C369.8 46.9996 368 46.6996 365.8 46.6996V46.6996ZM401.2 46.3996C392.1 46.3996 384.8 49.0996 379.7 54.3996C374.5 59.6996 372 66.9996 372 76.1996C372 84.7996 374.6 91.7996 379.6 96.8996C384.6 101.9 391.4 104.5 399.9 104.5C408.8 104.5 415.9 101.8 421 96.3996C426.2 90.9996 428.7 83.7996 428.7 74.8996C428.7 66.0996 426.3 59.0996 421.4 53.9996C416.7 48.8996 409.8 46.3996 401.2 46.3996V46.3996ZM411.6 88.9996C409.2 92.0996 405.4 93.5996 400.7 93.5996C396 93.5996 392.2 92.0996 389.5 88.7996C386.8 85.6996 385.5 81.1996 385.5 75.4996C385.5 69.5996 386.9 65.0996 389.5 61.8996C392.2 58.6996 395.9 57.0996 400.6 57.0996C405.2 57.0996 408.8 58.5996 411.4 61.6996C414 64.7996 415.4 69.2996 415.4 75.1996C415.2 81.1996 414.1 85.8996 411.6 88.9996V88.9996ZM457.7 70.5996C453.6 68.8996 451 67.5996 449.8 66.4996C448.8 65.4996 448.3 64.0996 448.3 62.2996C448.3 60.7996 448.9 59.2996 450.4 58.2996C451.9 57.2996 453.6 56.7996 456.1 56.7996C458.3 56.7996 460.6 57.1996 462.8 57.7996C465 58.3996 467 59.2996 468.6 60.4996L469.1 60.8996V48.6996L468.8 48.5996C467.3 47.9996 465.3 47.3996 462.9 46.8996C460.5 46.4996 458.3 46.2996 456.5 46.2996C450.3 46.2996 445.2 47.7996 441.2 51.0996C437.2 54.1996 435.3 58.3996 435.3 63.2996C435.3 65.8996 435.7 68.1996 436.6 70.0996C437.5 71.9996 438.8 73.7996 440.6 75.2996C442.4 76.6996 445 78.2996 448.6 79.7996C451.6 81.0996 453.9 82.0996 455.3 82.8996C456.7 83.6996 457.6 84.5996 458.3 85.2996C458.8 86.0996 459.1 87.0996 459.1 88.3996C459.1 92.0996 456.3 93.8996 450.6 93.8996C448.4 93.8996 446.1 93.4996 443.4 92.5996C440.7 91.6996 438.2 90.3996 436.1 88.8996L435.6 88.4996V101.2L435.9 101.3C437.8 102.2 440.1 102.8 442.9 103.5C445.7 104 448.2 104.4 450.4 104.4C457.1 104.4 462.6 102.9 466.5 99.5996C470.5 96.3996 472.6 92.2996 472.6 86.9996C472.6 83.2996 471.6 79.9996 469.4 77.4996C466.5 75.0996 462.9 72.5996 457.7 70.5996V70.5996ZM506.9 46.3996C497.8 46.3996 490.5 49.0996 485.4 54.3996C480.3 59.6996 477.7 66.9996 477.7 76.1996C477.7 84.7996 480.3 91.7996 485.3 96.8996C490.3 101.9 497.1 104.5 505.6 104.5C514.5 104.5 521.6 101.8 526.7 96.3996C531.9 90.9996 534.4 83.7996 534.4 74.8996C534.4 66.0996 532 59.0996 527.1 53.9996C522.4 48.8996 515.5 46.3996 506.9 46.3996V46.3996ZM517.2 88.9996C514.8 92.0996 511 93.5996 506.3 93.5996C501.5 93.5996 497.8 92.0996 495.1 88.7996C492.4 85.6996 491.1 81.1996 491.1 75.4996C491.1 69.5996 492.5 65.0996 495.1 61.8996C497.8 58.6996 501.5 57.0996 506.2 57.0996C510.7 57.0996 514.4 58.5996 517 61.6996C519.6 64.7996 521 69.2996 521 75.1996C521 81.1996 519.7 85.8996 517.2 88.9996V88.9996ZM603.9 58.2996V47.5996H590.8V31.1996L590.4 31.2996L578 34.9996L577.7 35.0996V47.5996H558.1V40.5996C558.1 37.3996 558.9 34.8996 560.3 33.2996C561.7 31.6996 563.8 30.8996 566.4 30.8996C568.2 30.8996 570.1 31.2996 572.2 32.1996L572.7 32.4996V21.1996L572.4 21.0996C570.6 20.4996 568.2 20.0996 565.1 20.0996C561.2 20.0996 557.8 20.9996 554.7 22.4996C551.6 24.1996 549.3 26.4996 547.6 29.5996C545.9 32.5996 545 35.9996 545 39.8996V47.5996H535.9V58.1996H545V103H558.1V58.2996H577.7V86.7996C577.7 98.4996 583.2 104.4 594.2 104.4C596 104.4 597.9 104.1 599.7 103.8C601.6 103.4 603 102.9 603.8 102.5L603.9 102.4V91.6996L603.4 92.0996C602.6 92.5996 601.9 92.9996 600.7 93.2996C599.7 93.5996 598.8 93.6996 598.1 93.6996C595.5 93.6996 593.7 93.0996 592.4 91.5996C591.2 90.1996 590.6 87.8996 590.6 84.4996V58.2996H603.9V58.2996Z" fill="#CCCCCC"/>
<path d="M0 0H61.3V61.3H0V0Z" fill="#868686"/>
<path d="M67.7 0H129V61.3H67.7V0Z" fill="#A5A5A5"/>
<path d="M0 67.7002H61.3V129H0V67.7002Z" fill="#B9B9B9"/>
<path d="M67.7 67.7002H129V129H67.7V67.7002Z" fill="#CCCCCC"/>
</svg>
