<svg width="705" height="190" viewBox="0 0 705 190" fill="none" xmlns="http://www.w3.org/2000/svg">
<path d="M105.56 185.64H61.1L0 3.64H39L83.46 143.52L127.66 3.64H166.92L105.56 185.64Z" fill="#CCCCCC"/>
<path d="M258.495 87.88H349.755V101.92C349.755 127.92 341.435 148.98 324.795 165.1C308.155 181.22 286.662 189.28 260.315 189.28C232.235 189.28 208.922 180.18 190.375 161.98C172.002 143.607 162.815 121.247 162.815 94.9C162.815 68.38 171.915 45.9333 190.115 27.56C208.488 9.18667 231.195 0 258.235 0C275.048 0 290.475 3.81334 304.515 11.44C318.555 19.0667 329.562 29.38 337.535 42.38L306.855 60.06C302.522 52.6067 295.935 46.54 287.095 41.86C278.255 37.18 268.548 34.84 257.975 34.84C240.468 34.84 226.168 40.56 215.075 52C203.982 63.0933 198.435 77.3933 198.435 94.9C198.435 112.06 204.068 126.273 215.335 137.54C226.602 148.633 241.682 154.18 260.575 154.18C274.268 154.18 285.708 151.147 294.895 145.08C304.082 139.013 310.322 130.52 313.615 119.6H258.495V87.88Z" fill="#CCCCCC"/>
<path d="M475.375 114.66V3.64H511.255V185.64H483.955L405.955 74.36V185.64H370.075V3.64H397.375L475.375 114.66Z" fill="#CCCCCC"/>
<path d="M626.137 189.28C598.924 189.28 576.304 180.18 558.277 161.98C540.424 143.953 531.497 121.507 531.497 94.64C531.497 67.6 540.424 45.1533 558.277 27.3C576.304 9.1 598.924 0 626.137 0C642.604 0 657.77 3.9 671.637 11.7C685.677 19.3267 696.597 29.7267 704.397 42.9L673.457 60.84C668.95 52.6933 662.537 46.3667 654.217 41.86C645.897 37.18 636.537 34.84 626.137 34.84C608.457 34.84 594.157 40.3867 583.237 51.48C572.49 62.7467 567.117 77.1333 567.117 94.64C567.117 111.973 572.49 126.273 583.237 137.54C594.157 148.633 608.457 154.18 626.137 154.18C636.537 154.18 645.897 151.927 654.217 147.42C662.71 142.74 669.124 136.413 673.457 128.44L704.397 146.38C696.597 159.553 685.677 170.04 671.637 177.84C657.77 185.467 642.604 189.28 626.137 189.28Z" fill="#CCCCCC"/>
</svg>
