<svg width="300" height="90" viewBox="0 0 300 90" fill="none" xmlns="http://www.w3.org/2000/svg">
<path d="M21.793 0V36.2591L38.5921 16.1672H61.8129L41.5649 44.5377L62.3513 88.1313H40.8627L27.2158 61.2901L21.793 68.3749V88.1313H0V0H21.793Z" fill="#CCCCCC"/>
<path d="M300 35.0542C299.969 35.0542 299.938 35.0542 299.898 35.0542C297.066 35.0542 286.899 37.434 285.557 40.0323H285.362V35.8189H266.69V88.1124H285.495V61.2946C285.495 52.4776 290.278 50.4411 297.94 50.4411C298.705 50.4411 299.384 50.4723 300 50.5117V35.0545V35.0542ZM244.685 56.1402C244.685 51.4196 241.026 47.5963 235.837 47.5963C229.837 47.5963 226.38 50.6393 225.467 56.1402H244.685ZM225.358 67.8286C225.873 73.626 229.33 77.3634 235.634 77.3634C238.888 77.3634 242.446 75.007 244.077 72.5492H262.233C258.168 83.551 247.736 88.6617 235.736 88.6617C218.858 88.6617 206.148 79.0332 206.148 62.0312C206.148 47.1983 217.329 35.1198 234.011 35.1198C254.961 35.1198 263.349 47.9864 263.349 67.8286H225.358V67.8286ZM172.549 47.4332C163.015 47.4332 160.869 55.2046 160.869 62.2739C160.869 69.4601 163.015 77.2316 172.549 77.2316C182.084 77.2316 184.23 69.4601 184.23 62.2739C184.23 55.2046 182.084 47.4332 172.549 47.4332ZM202.995 88.0071H184.23V82.2175H184.043C181.585 85.4634 178.635 89.0995 169.101 89.0995C154.666 89.0995 143.11 74.8518 143.11 62.0788C143.11 50.0939 152.301 35.5497 169.397 35.5497C168.89 35.5497 181.468 35.7369 183.348 38.4913H183.543V16.0273H202.995V88.0071H202.995ZM88.3319 35.8454H106.746L106.847 37.8351H107.035C108.096 36.3136 118.091 34.5736 123.225 34.5736C132.19 34.5736 140.383 40.1681 140.383 51.8565V88.0843H121.298V57.0063C121.298 51.1075 120.619 46.9798 115.032 46.9798C111.755 46.9798 107.417 48.6496 107.417 56.8112V88.0843H88.3316V35.8454H88.3319ZM83.7174 88.1741H64.7569V35.8103H83.7174V88.1741ZM83.6394 32.3365H64.6788L64.7569 16.0289H83.7174L83.6394 32.3365Z" fill="#CCCCCC"/>
</svg>
