<svg width="745" height="239" viewBox="0 0 745 239" fill="none" xmlns="http://www.w3.org/2000/svg">
<path fill-rule="evenodd" clip-rule="evenodd" d="M223.572 57.5968H228.251V63.6805C227.081 64.1659 225.806 64.6893 223.89 64.6893C218.038 64.6893 215.415 58.7151 215.415 53.8638C215.415 47.7039 219.316 43.6734 224.529 43.6734C226.124 43.6734 227.401 44.047 228.607 44.8678C230.061 45.8005 230.557 46.6974 230.946 47.3684L232.331 46.8093C232.118 45.9124 231.798 44.4943 230.414 43.0002C228.535 40.9492 225.806 40.1641 223.111 40.1641C217.365 40.1641 210.024 44.4563 210.024 54.3111C210.024 58.2678 211.196 61.7771 213.784 64.4656C215.166 65.9217 217.862 68.1226 223.004 68.1226C227.898 68.1226 231.266 66.4429 233.181 65.4721V53.9376H223.572V57.5968Z" fill="#CCCCCC"/>
<path fill-rule="evenodd" clip-rule="evenodd" d="M282.893 53.2299C281.51 53.8271 280.092 53.8271 278.708 53.8652V44.6433C279.347 44.6433 280.126 44.6075 280.801 44.6075C281.794 44.6075 282.964 44.6813 283.993 45.2785C285.764 46.2873 285.872 48.2265 285.872 48.8237C285.872 51.3645 284.17 52.6685 282.893 53.2299V53.2299ZM289.949 51.9975C290.907 50.4676 291.086 48.9735 291.086 48.0028C291.086 46.1352 290.41 43.7486 288.39 42.3306C286.937 41.3218 285.199 40.9863 282.537 40.9863H273.637V67.3389H278.708V55.6925C280.126 55.9922 280.41 55.9922 281.651 55.9922L288.035 67.3389H293.709L286.724 54.8336C287.753 54.2744 288.92 53.6392 289.949 51.9975Z" fill="#CCCCCC"/>
<path fill-rule="evenodd" clip-rule="evenodd" d="M343.35 64.6152C336.613 64.6152 336.575 55.7311 336.575 53.6778C336.575 47.8177 338.917 43.7112 343.35 43.6731C347.038 43.6351 350.299 46.4377 350.299 54.2392C350.299 56.0286 350.299 64.6152 343.35 64.6152ZM343.314 40.166C333.989 40.166 331.079 47.8177 331.079 54.4249C331.079 60.5467 333.989 68.1245 343.28 68.1245C352.996 68.1245 355.725 60.0993 355.725 54.0894C355.725 48.3411 353.209 40.2018 343.314 40.166Z" fill="#CCCCCC"/>
<path fill-rule="evenodd" clip-rule="evenodd" d="M411.041 61.7025C410.225 62.5994 408.308 64.6527 405.367 64.6527C403.452 64.6527 401.927 63.7178 401.11 61.8143C400.826 61.1433 400.473 60.0227 400.473 57.672V40.9863H395.367V57.3343C395.367 62.1498 396.109 64.2053 397.635 65.847C399.088 67.3769 401.11 68.162 403.772 68.162C404.658 68.162 406.678 68.0122 408.451 66.8558C409.552 66.1468 410.297 65.2118 411.041 64.2411V67.3389H416.076V40.9863H411.041V61.7025Z" fill="#CCCCCC"/>
<path fill-rule="evenodd" clip-rule="evenodd" d="M467.123 53.119C465.528 53.8638 464.074 53.9018 462.654 53.9018V44.5704C464.678 44.5324 466.024 44.5324 467.194 44.9417C468.968 45.5791 469.923 47.071 469.923 49.0125C469.923 50.804 469.001 52.2601 467.123 53.119ZM467.087 40.9492H457.583V67.3398H462.654V55.6174C463.472 55.7314 464.394 55.8813 465.385 55.8813C470.811 55.8813 475.244 52.9311 475.244 47.8919C475.244 45.1676 473.719 40.9492 467.087 40.9492Z" fill="#CCCCCC"/>
<path fill-rule="evenodd" clip-rule="evenodd" d="M518.775 63.7567V55.5078H528.064V51.8866H518.775V44.5704H529.377V40.9492H513.702V67.3398H530.867V63.7567H518.775Z" fill="#CCCCCC"/>
<path fill-rule="evenodd" clip-rule="evenodd" d="M0 110.249C0 45.3964 165.899 -3.85541 370.551 0.237724C467.225 2.17245 555.25 15.6641 621.225 36.1969C633.252 39.9411 629.899 41.0438 616.676 37.8632C557.122 23.5418 476.964 15.5792 378.704 13.6131C165.872 9.35447 17.8957 67.2041 17.8957 127.852C17.8957 144.515 0 132.927 0 110.249Z" fill="#CCCCCC"/>
<path d="M0 110.249C0 45.3964 165.899 -3.85541 370.551 0.237724C467.225 2.17245 555.25 15.6641 621.225 36.1969C633.252 39.9411 629.899 41.0438 616.676 37.8632C557.122 23.5418 476.964 15.5792 378.704 13.6131C165.872 9.35447 17.8957 67.2041 17.8957 127.852C17.8957 144.515 0 132.927 0 110.249V110.249Z" fill="#CCCCCC"/>
<path fill-rule="evenodd" clip-rule="evenodd" d="M744.829 127.763C744.829 192.614 578.93 241.868 374.278 237.774C277.606 235.84 189.581 222.348 123.604 201.815C111.577 198.071 114.93 196.968 128.153 200.147C187.707 214.47 267.865 222.433 366.125 224.399C578.957 228.658 726.935 170.808 726.935 110.16C726.935 93.4971 744.829 105.085 744.829 127.763Z" fill="#CCCCCC"/>
<path d="M744.829 127.763C744.829 192.614 578.93 241.868 374.278 237.774C277.606 235.84 189.581 222.348 123.604 201.815C111.577 198.071 114.93 196.968 128.153 200.147C187.707 214.47 267.865 222.433 366.125 224.399C578.957 228.658 726.935 170.808 726.935 110.16C726.935 93.4971 744.829 105.085 744.829 127.763V127.763Z" fill="#CCCCCC"/>
<path fill-rule="evenodd" clip-rule="evenodd" d="M572.303 95.1573C572.303 90.2813 577.445 86.3291 583.788 86.3291C590.131 86.3291 595.274 90.2813 595.274 95.1573C595.274 100.035 590.131 103.985 583.788 103.985C577.445 103.985 572.303 100.035 572.303 95.1573Z" fill="#CCCCCC"/>
<path fill-rule="evenodd" clip-rule="evenodd" d="M74.9772 91.8418H54.5428V159.101L102.573 159.092C111.411 159.159 118.23 154.505 120.462 149.671L74.9772 149.669V91.842V91.8418Z" fill="#CCCCCC"/>
<path fill-rule="evenodd" clip-rule="evenodd" d="M395.818 91.8419H317.901V101.084H345.515V159.101H365.952V101.084L378.189 101.075C387.006 101.276 394.288 95.8343 395.818 91.8418" fill="#CCCCCC"/>
<path fill-rule="evenodd" clip-rule="evenodd" d="M516.68 91.8418H496.246V159.101L544.276 159.092C553.113 159.159 559.931 154.505 562.165 149.671L516.68 149.669V91.842V91.8418Z" fill="#CCCCCC"/>
<path fill-rule="evenodd" clip-rule="evenodd" d="M156.212 135.38L170.788 113.563L185.792 135.38H156.212ZM170.359 91.8428L122.487 159.102L128.439 159.093C138.392 158.89 143.456 154.278 145.531 151.195L150.208 144.239H191.936L196.467 150.974C200.811 157.583 209.053 159.093 213.6 159.093L223.661 159.102L177.362 91.8428H170.359Z" fill="#CCCCCC"/>
<path fill-rule="evenodd" clip-rule="evenodd" d="M417.212 135.38L431.791 113.563L446.794 135.38H417.212ZM431.359 91.8428L383.487 159.102L389.439 159.093C399.392 158.89 404.456 154.278 406.534 151.195L411.211 144.239H452.939L457.47 150.974C461.812 157.583 470.054 159.093 474.601 159.093L484.664 159.102L438.362 91.8428H431.359Z" fill="#CCCCCC"/>
<path fill-rule="evenodd" clip-rule="evenodd" d="M279.457 98.1253C297.348 98.501 305.206 105.048 308.491 107.622L313.103 104.035C302.902 92.934 285.357 89.9569 275.337 89.7467C237.765 88.9594 222.661 109.405 222.343 124.554C221.871 147.095 242.713 160.419 269.669 160.983C302.231 161.663 311.314 146.328 312.589 144.326C312.589 144.326 308.706 143.004 306.908 142.588C304.277 145.111 295.371 153.049 277.956 152.685C253.744 152.179 243.31 137.641 243.59 124.281C243.86 111.281 256.497 97.6444 279.457 98.1253Z" fill="#CCCCCC"/>
<path fill-rule="evenodd" clip-rule="evenodd" d="M635.33 108.683C635.594 101.172 644.666 97.6583 659.213 98.1773C668.173 98.4971 676.706 100.982 682.754 105.869L686.713 101.776C681.694 96.2649 670.703 90.445 654.702 89.859C633.947 89.0985 615.141 96.0502 615.141 110.367C615.141 137.579 668.484 123.828 668.484 141.714C668.484 149.724 657.587 153.334 644.628 152.949C629.98 152.513 618.794 146.465 617.175 139.715C615.598 139.469 611.511 139.587 610.532 139.592C610.516 148.254 619.955 159.97 646.88 161.015C678.589 162.245 689.144 149.223 689.144 140.406C689.144 111.564 634.775 124.541 635.33 108.683Z" fill="#CCCCCC"/>
<path fill-rule="evenodd" clip-rule="evenodd" d="M573.582 159.094H594.018L594.02 107.238L573.577 107.352L573.581 159.094H573.582Z" fill="#CCCCCC"/>
</svg>
