<svg width="252" height="151" viewBox="0 0 252 151" fill="none" xmlns="http://www.w3.org/2000/svg">
<path d="M28.796 115.736H35.2691L34.9413 120.418H28.4672L28.796 115.736Z" fill="#414749"/>
<path d="M204.493 138.29C207.694 138.29 207.898 135.316 208.068 132.902C206.625 132.902 205.259 132.829 204.289 133.297C203.246 133.803 202.466 134.669 202.377 135.931C202.287 137.228 203.196 138.29 204.493 138.29ZM207.468 139.519H207.396C205.926 140.883 204.537 141.876 201.891 141.876C197.601 141.876 195.798 139.435 195.798 136.235C195.798 132.63 199.493 130.315 206.057 130.315H208.223C208.334 128.729 208.886 126.114 206.167 126.114C204.237 126.114 203.768 127.946 203.729 128.83H197.493C197.636 126.469 198.656 124.892 200.553 124.063C202.49 123.2 204.848 122.983 206.869 122.983C210.547 122.983 215.06 124.812 214.755 129.299L214.243 138.001C214.192 138.757 214.181 139.55 214.282 141.713H207.817L207.468 139.519Z" fill="#CCCCCC"/>
<path d="M236.827 131.64L243.311 123.578H251.093L244.111 131.244L250.73 141.73H242.296L236.827 131.64ZM229.267 141.73L231.089 115.732H237.944L236.121 141.73H229.267Z" fill="#CCCCCC"/>
<path d="M118.157 126.276H118.229C119.988 124.013 122.013 123.637 124.244 123.637L123.839 129.439C123.377 129.404 122.909 129.404 122.439 129.404C117.922 129.404 117.783 131.989 117.615 134.985L117.209 141.732H110.177L111.117 128.291C111.231 126.668 111.271 125.588 111.227 123.591H117.928L118.157 126.276Z" fill="#CCCCCC"/>
<path d="M123.732 141.727L125.553 115.728H132.187L130.367 141.727H123.732Z" fill="#CCCCCC"/>
<path d="M75.7372 132.915C75.6318 135.126 76.1883 138.248 78.6703 138.248C81.8257 138.248 82.6024 135.107 82.7194 132.592C82.8227 130.37 82.3832 127.073 79.7052 127.082C76.2863 127.091 75.8521 130.513 75.7372 132.915ZM70.3022 115.729H77.0957L76.3675 126.093H76.4992C77.8735 124.471 79.7822 123.117 82.2283 123.117C87.7835 123.117 89.9229 128.003 89.6204 132.413C89.3137 136.892 86.9719 141.991 80.7676 141.991C78.6766 141.991 76.6447 140.841 75.7046 139.499H75.5602L75.1534 141.709H68.4811L70.3022 115.729Z" fill="#CCCCCC"/>
<path d="M103.571 130.428C103.638 129.454 103.418 128.482 102.93 127.725C102.442 126.968 101.702 126.5 100.651 126.573C98.2624 126.681 97.6258 128.374 97.3033 130.428H103.571ZM96.9808 133.846C96.7806 136.348 97.3529 138.365 99.9128 138.365C101.826 138.365 103.03 137.093 103.03 135.911H109.38C109.238 138.113 107.7 139.827 105.898 140.836C104.24 141.845 102.339 142.023 100.303 142.023C92.9064 142.023 90.0472 138.958 90.5046 132.083C90.885 126.352 95.5043 122.963 100.951 123.05C108.238 123.166 110.58 127.451 109.886 133.846H96.9808Z" fill="#CCCCCC"/>
<path d="M1.82643 115.737H9.45147L7.62504 141.729H0L1.82643 115.737Z" fill="#CCCCCC"/>
<path d="M17.8881 115.737L8.77283 127.285L16.8953 141.729H26.0296L16.9248 126.907L26.5059 115.737H17.8881Z" fill="#CCCCCC"/>
<path d="M28.1636 123.588H34.6368L33.3668 141.723H26.8937L28.1636 123.588Z" fill="#CCCCCC"/>
<path d="M42.8341 123.588L42.832 126.038H42.9037C44.924 123.397 47.7042 123.16 49.4126 123.16C51.8862 123.16 54.4166 124.528 54.9267 126.363C56.3263 124.194 58.8241 123.123 61.5769 123.052C65.5364 123.052 68.2892 125.581 68.0047 129.593L67.1436 141.725H60.1794L60.9361 131.076C61.0278 129.349 60.8887 127.388 58.6154 127.388C55.2798 127.388 55.4105 131.112 55.3757 131.329L54.6611 141.729H47.6768L48.4494 131.076C48.482 129.306 48.2512 127.388 46.0433 127.388C42.5232 127.388 42.5981 131.112 42.6012 131.329L41.8782 141.735H34.6969L35.9584 123.59L42.8341 123.588Z" fill="#CCCCCC"/>
<path d="M140.985 150.452H134.683L138.745 142.02L132.092 123.588H139.817L142.817 134.843L147.581 123.588H153.955L140.985 150.452Z" fill="#CCCCCC"/>
<path d="M154.159 127.234H162.935L160.129 132.908H151.353L154.159 127.234Z" fill="#CCCCCC"/>
<path d="M177.028 115.041C182.391 115.041 187.871 117.382 187.633 123.89H180.246C180.246 122.183 179.251 120.24 176.75 120.24C174.247 120.24 171.308 122.103 170.795 127.502C170.278 132.898 170.952 136.984 175.32 136.984C179.093 136.984 179.849 133.73 179.927 133.096H187.256C187.256 135.993 184.852 141.984 174.923 141.984C164.438 141.984 162.571 134.366 163.444 127.262C164.177 121.315 168.411 115.041 177.028 115.041Z" fill="#CCCCCC"/>
<path d="M187.768 141.727L189.59 115.728H196.225L194.402 141.727H187.768Z" fill="#CCCCCC"/>
<path d="M223.411 126.276H223.483C225.243 124.013 227.267 123.637 229.54 123.637L229.133 129.439C228.63 129.404 228.161 129.404 227.693 129.404C223.176 129.404 223.038 131.989 222.869 134.985L222.462 141.732H215.431L216.371 128.291C216.485 126.668 216.524 125.588 216.479 123.591H223.182L223.411 126.276Z" fill="#CCCCCC"/>
<path d="M124.975 90.5481C97.3309 90.5481 75.0248 71.3918 75.0248 47.6662C75.0248 23.9354 97.3309 4.77889 124.975 4.77889C152.617 4.77889 174.926 23.9354 174.926 47.6662C174.926 71.3918 152.617 90.5481 124.975 90.5481ZM70.6715 47.6741C70.6715 73.7541 94.9739 94.8936 124.954 94.8936C154.934 94.8936 179.239 73.7541 179.239 47.6741C179.239 21.5941 154.934 0.451958 124.954 0.451958C94.9107 0.451958 70.6715 21.5941 70.6715 47.6741Z" fill="#CCCCCC"/>
<path d="M131.98 75.1955V54.343C135.878 63.0627 142.77 64.9852 148.356 64.9852H163.857V55.6413H153.007C147.413 55.6413 145.662 51.4908 145.662 49.1048C145.662 43.3268 150.349 38.9289 157.334 32.7532H144.966C139.618 36.2584 134.393 41.8126 131.994 48.0462V19.1746H117.949V48.0462C115.55 41.8126 110.325 36.2584 104.976 32.7532H92.6089C99.5957 38.9289 104.281 43.3268 104.281 49.1048C104.281 51.4882 102.53 55.6387 96.9359 55.6387H86.0883V64.9826H101.589C107.172 64.9826 114.059 63.0627 117.962 54.343V75.1955H131.98ZM113.456 79.6855V66.5442C112.347 67.2921 109.593 69.4595 103.915 69.4595H81.6113V51.1353H95.3742C98.8188 51.1353 99.0374 49.0839 99.0374 48.4624C99.0374 43.1689 89.9412 35.845 79.8468 28.2472L106.899 28.1972C108.552 29.4139 111.154 31.2573 113.472 33.8645V14.6186H136.471V33.8645C138.788 31.2573 141.39 29.4139 143.044 28.1972L170.098 28.2472C159.999 35.8476 150.905 43.1689 150.905 48.4624C150.905 49.0839 151.124 51.1353 154.568 51.1353H168.331V69.4595H146.028C140.35 69.4595 137.595 67.2922 136.486 66.5469V79.6855H113.456Z" fill="#CCCCCC"/>
</svg>
