<svg width="300" height="44" viewBox="0 0 300 44" fill="none" xmlns="http://www.w3.org/2000/svg">
<path d="M45.4589 42.4121H33.5162V12.553H33.3948L25.7746 42.4121H17.6105L9.75229 12.553H9.63087V42.4121H0V0.610334H16.7605L22.7294 22.7861H22.8509L28.5769 0.610334H45.4589V42.4121Z" fill="#CCCCCC"/>
<path d="M80.1223 42.4121H48.7382V0.610334H80.1223V10.2364H61.2928V16.3315H76.5234V25.6516H61.2928V32.417H80.1223V42.4121Z" fill="#CCCCCC"/>
<path d="M97.8153 32.7841C99.52 32.7841 100.618 32.9007 102.201 32.0508C103.362 31.3805 104.275 30.4675 104.94 29.3067C106.407 26.8735 106.892 24.0712 106.892 21.264C106.892 18.4617 106.101 14.8046 104.333 12.4879C102.322 9.99157 100.375 10.113 97.4461 10.113H95.9843V32.7841H97.8153ZM83.1285 0.608381H98.5438C104.581 0.608381 109.389 1.40003 113.901 5.72736C118.286 9.87014 120.297 15.5962 120.297 21.57C120.297 27.0532 118.349 32.7841 114.513 36.7424C110.365 41.0697 105.188 42.4102 99.3985 42.4102H83.1285V0.608381Z" fill="#CCCCCC"/>
<path d="M135.487 42.4151H122.568V0.613281H135.487V42.4151Z" fill="#CCCCCC"/>
<path d="M159.561 25.0416L156.146 12.9144L152.737 25.0416H159.561ZM161.756 34.1868H150.6L148.045 42.4141H137.623L150.6 0.607433H164.131L177.234 42.4141H164.131L161.756 34.1868Z" fill="#CCCCCC"/>
<path d="M211.033 27.1779C210.242 36.8039 203.233 43.0205 193.602 43.0205C181.053 43.0205 174.472 33.9384 174.472 22.0589C174.472 9.98997 180.261 -0.000301738 193.423 -0.000301738C204.083 -0.000301738 210.178 6.33286 211.033 16.7554L199.091 17.3625C199.212 13.8316 197.871 9.38288 193.544 9.38288C187.876 9.38288 187.634 18.0958 187.634 22.0589C187.634 26.2648 187.876 33.3896 193.666 33.3896C197.629 33.3896 199.149 29.9171 199.333 26.4445L211.033 27.1779Z" fill="#CCCCCC"/>
<path d="M226.286 21.6908C226.286 25.7121 226.709 33.4489 232.561 33.4489C238.409 33.4489 238.836 25.7121 238.836 21.6908C238.836 17.6111 238.229 9.44213 232.561 9.44213C226.893 9.44213 226.286 17.6111 226.286 21.6908ZM252.546 21.6325C252.546 33.5169 245.232 43.0215 232.561 43.0215C219.885 43.0215 212.576 33.5169 212.576 21.6325C212.576 9.14102 219.827 0.000674825 232.561 0.000674825C245.295 0.000674825 252.546 9.14102 252.546 21.6325Z" fill="#CCCCCC"/>
<path d="M300 42.4121H288.057V12.553H287.936L280.316 42.4121H272.152L264.289 12.553H264.167V42.4121H254.536V0.610334H271.297L277.271 22.7861H277.392L283.118 0.610334H300V42.4121Z" fill="#CCCCCC"/>
</svg>
