<svg width="300" height="106" viewBox="0 0 300 106" fill="none" xmlns="http://www.w3.org/2000/svg">
<path fill-rule="evenodd" clip-rule="evenodd" d="M250.991 70.4249C255.151 67.5822 251.615 62.4515 246.969 64.7395C182.003 96.4947 117.175 96.772 51.1688 65.2248C40.6993 60.2328 41.7393 68.2756 46.1074 71.1183C120.365 119.652 187.827 114.383 250.991 70.4249Z" fill="#CCCCCC"/>
<path fill-rule="evenodd" clip-rule="evenodd" d="M12.7575 10.5201H17.4723C22.6858 10.388 27.7587 12.2192 31.6858 15.6508C33.3898 17.4096 34.6934 19.5161 35.5071 21.8258C36.3209 24.1355 36.6257 26.5938 36.4006 29.0324C36.4253 32.1251 35.5804 35.1625 33.9622 37.7983C32.344 40.434 30.0176 42.5619 27.2484 43.9393C22.7035 46.0442 17.6538 46.8137 12.6882 46.1579V10.5201H12.7575ZM80.4279 33.1924C78.3076 25.5194 75.0097 18.2219 70.6518 11.5601C66.3179 18.235 63.0217 25.5288 60.8756 33.1924H80.4973H80.4279ZM65.2437 1.64526H76.4759C87.3614 13.7094 94.0868 31.3204 96.3055 54.6167H84.172C83.8484 50.5491 83.3631 46.6664 82.716 42.9686H58.3102C57.6282 46.8242 57.1422 50.7119 56.8542 54.6167H45.206C47.9794 30.9044 54.5662 13.0161 65.2437 1.64526ZM98.3855 54.6167H109.964V18.5629C120.964 28.2472 129.134 40.7304 133.607 54.6861H143.938V1.64526H132.359V27.2297C125.652 17.4901 117.464 8.85793 108.092 1.64526H98.3855V54.6167ZM202.387 54.6167H213.966V18.5629C224.965 28.2472 233.136 40.7304 237.609 54.6861H248.287V1.64526H236.638V27.2297C229.931 17.4901 221.743 8.85793 212.371 1.64526H202.664V54.6167H202.387ZM173.267 0.0505676C180.55 0.304076 187.44 3.41385 192.448 8.7075C197.456 14.0011 200.18 21.0533 200.03 28.339C200.214 31.9636 199.66 35.5878 198.4 38.9913C197.14 42.3949 195.201 45.5066 192.701 48.1374C190.201 50.7681 187.192 52.8629 183.857 54.2943C180.522 55.7257 176.931 56.4639 173.301 56.4639C169.672 56.4639 166.081 55.7257 162.746 54.2943C159.411 52.8629 156.402 50.7681 153.902 48.1374C151.401 45.5066 149.462 42.3949 148.203 38.9913C146.943 35.5878 146.388 31.9636 146.573 28.339C146.422 21.0648 149.136 14.0228 154.13 8.7311C159.123 3.43939 165.996 0.321849 173.267 0.0505676ZM173.267 10.5201C177.743 10.7706 181.938 12.7881 184.928 16.1292C187.918 19.4704 189.46 23.862 189.214 28.339C189.421 30.5582 189.162 32.7961 188.455 34.9097C187.748 37.0234 186.608 38.9661 185.107 40.6137C183.606 42.2613 181.777 43.5775 179.739 44.4781C177.7 45.3787 175.495 45.8439 173.267 45.8439C171.038 45.8439 168.834 45.3787 166.795 44.4781C164.756 43.5775 162.928 42.2613 161.427 40.6137C159.926 38.9661 158.785 37.0234 158.078 34.9097C157.371 32.7961 157.113 30.5582 157.32 28.339C157.074 23.862 158.615 19.4704 161.606 16.1292C164.596 12.7881 168.79 10.7706 173.267 10.5201ZM289.055 23.1389H262.847C263.194 19.6515 264.788 16.4063 267.335 13.9991C269.882 11.592 273.212 10.1844 276.714 10.0347C278.395 10.0513 280.055 10.4073 281.595 11.0815C283.135 11.7556 284.523 12.734 285.676 13.9578C286.828 15.1817 287.722 16.6258 288.303 18.2034C288.883 19.7811 289.139 21.4599 289.055 23.1389ZM298.97 44.4246L287.807 41.7206C286.408 43.1618 284.723 44.2948 282.86 45.047C280.998 45.7992 278.999 46.154 276.991 46.0886C273.233 46.1631 269.598 44.7458 266.883 42.147C264.167 39.5482 262.591 35.9795 262.5 32.2217H299.386C299.922 29.2024 300.108 26.1315 299.941 23.0696C299.639 17.3003 297.583 11.7607 294.047 7.19201C291.876 4.73587 289.156 2.82755 286.108 1.62263C283.059 0.417712 279.769 -0.0496789 276.506 0.258569C273.068 0.181597 269.654 0.833846 266.487 2.17234C263.32 3.51084 260.472 5.5052 258.132 8.02402C253.086 14.0805 250.599 21.8653 251.199 29.7257C251.022 33.6252 251.657 37.5188 253.066 41.1594C254.474 44.7999 256.625 48.1077 259.38 50.8727C261.538 52.8905 264.081 54.4523 266.857 55.4649C269.633 56.4775 272.584 56.9201 275.535 56.7661C280.143 56.8001 284.69 55.7134 288.784 53.5997C292.879 51.486 296.398 48.4086 299.039 44.6326L298.97 44.4246ZM0 1.29859C2.4267 7.81602 1.04001 34.0244 1.04001 43.3846C1.04001 51.15 0.624008 55.3101 0.624008 55.3101C5.19212 56.1945 9.83826 56.6127 14.4909 56.5581C22.7694 56.6738 30.8569 54.0673 37.5099 49.1393C40.8125 46.4498 43.4367 43.0218 45.171 39.1317C46.9052 35.2416 47.701 30.9984 47.4941 26.7443C47.8052 22.3969 46.9157 18.0476 44.9226 14.1715C42.9295 10.2953 39.9095 7.04146 36.1926 4.76531C28.7634 1.00611 20.424 -0.580044 12.1335 0.189236C8.07225 0.344272 4.02205 0.714575 0 1.29859Z" fill="#CCCCCC"/>
</svg>
