<?xml version="1.0" encoding="UTF-8"?>
<svg width="775px" height="225px" viewBox="0 0 775 225" version="1.1" xmlns="http://www.w3.org/2000/svg" xmlns:xlink="http://www.w3.org/1999/xlink">
    <!-- Generator: Sketch 53.2 (72643) - https://sketchapp.com -->
    <title>isobar-dark</title>
    <desc>Created with Sketch.</desc>
    <g id="Page-1" stroke="none" stroke-width="1" fill="none" fill-rule="evenodd">
        <g id="Group-3" fill="#CCCCCC">
            <path d="M735.4004,86.1001 L735.5004,81.5001 L735.5004,65.5001 L699.9004,65.3001 L699.9004,221.3001 L736.7994,221.3001 L736.7994,133.0001 L736.9004,133.0001 C737.5004,106.1001 757.0004,100.9001 774.7004,99.8001 L774.7004,62.3001 C750.5004,63.9001 737.4004,77.9001 735.4004,86.1001 L735.4004,86.1001 Z M283.0004,189.0001 C258.0004,189.0001 237.6004,168.7001 237.6004,143.5001 C237.6004,118.5001 258.0004,98.1001 283.0004,98.1001 C308.1004,98.1001 328.5004,118.5001 328.5004,143.5001 C328.4004,168.7001 308.1004,189.0001 283.0004,189.0001 L283.0004,189.0001 Z M281.7994,62.7001 C237.2004,62.7001 200.9004,99.0001 200.9004,143.6001 C200.9004,188.2001 237.2004,224.5001 281.7994,224.5001 C326.4004,224.5001 362.7004,188.1001 362.7004,143.6001 C362.6004,99.0001 326.4004,62.7001 281.7994,62.7001 L281.7994,62.7001 Z M643.2004,160.8001 C643.2004,181.2001 626.9004,194.4001 601.7994,194.4001 C585.2994,194.4001 574.7004,186.4001 574.7004,174.0001 C574.7004,159.8001 586.5994,152.5001 610.0994,152.5001 L643.2994,152.5001 L643.2994,160.8001 L643.2004,160.8001 Z M611.7994,62.7001 C592.9004,62.7001 576.0994,67.9001 563.0994,77.6001 C560.2994,79.7001 557.7004,81.9001 555.5004,84.4001 L575.4004,104.4001 C582.7004,96.9001 595.5004,92.5001 610.2994,92.5001 C631.0004,92.5001 643.2004,106.5001 643.2004,120.0001 L643.2004,125.9001 L609.0994,125.9001 C561.7004,125.9001 536.7004,142.9001 536.7004,175.0001 C536.7004,203.5001 560.0994,223.3001 593.5994,223.3001 C613.7994,223.3001 627.9004,222.4001 640.2994,210.0001 L643.7994,206.4001 L643.9004,221.3001 L679.0994,221.3001 L679.0994,120.0001 C679.0994,85.2001 652.7004,62.7001 611.7994,62.7001 L611.7994,62.7001 Z M449.7994,189.1001 C435.0004,189.1001 421.0004,181.8001 412.5004,169.6001 L412.0994,169.0001 L412.0994,118.3001 L412.5004,117.8001 C421.0004,105.6001 434.9004,98.3001 449.7994,98.3001 C474.9004,98.3001 495.2994,118.6001 495.2004,143.7001 C495.2994,168.7001 474.9004,189.1001 449.7994,189.1001 L449.7994,189.1001 Z M455.4004,62.8001 L455.0004,62.8001 C437.2994,62.8001 421.7004,69.6001 412.0994,78.9001 L412.0004,79.1001 L412.0994,0.0001 L375.2004,36.8001 L375.2004,221.5001 L409.2004,221.5001 L410.0004,208.2001 C422.9004,220.4001 435.5004,224.3001 454.0994,224.6001 L454.9004,224.6001 C473.4004,224.5001 492.4004,215.8001 506.9004,200.8001 C522.2004,185.1001 530.5994,164.8001 530.5994,143.7001 C530.7994,99.8001 496.2994,62.7001 455.4004,62.8001 L455.4004,62.8001 Z M123.5004,124.8001 C97.2004,122.2001 88.6004,117.6001 88.6004,108.4001 C88.6004,99.7001 99.2004,94.0001 118.7994,94.0001 C138.2004,94.0001 154.5004,99.5001 167.2994,109.3001 L188.7004,87.4001 C188.5004,87.2001 188.2994,87.0001 188.1004,86.8001 C169.6004,71.5001 146.0004,62.9001 120.6004,62.9001 C82.7994,62.9001 55.4004,81.3001 55.4004,109.6001 C55.4004,142.4001 81.0004,153.5001 119.7004,156.9001 C149.1004,159.5001 159.7994,164.4001 159.7994,175.7001 C159.7994,186.4001 148.7994,193.6001 124.6004,193.6001 C103.2994,193.6001 88.2004,188.6001 73.4004,177.6001 L51.4004,200.0001 C51.6004,200.2001 51.7004,200.3001 51.9004,200.5001 C72.7004,217.8001 95.5004,224.7001 124.1004,224.7001 C163.6004,224.7001 193.0004,206.5001 193.0004,175.1001 C193.1004,141.8001 163.9004,128.8001 123.5004,124.8001 L123.5004,124.8001 Z M2.2994,221.4001 L38.4994,221.4001 L38.4994,65.5001 L2.2994,65.5001 L2.2994,221.4001 Z M20.2004,4.3001 C9.1004,4.3001 0.0004,13.4001 0.0004,24.5001 C0.0004,35.6001 9.1004,44.7001 20.2004,44.7001 C31.2994,44.7001 40.4004,35.6001 40.4004,24.5001 C40.4004,13.3001 31.4004,4.3001 20.2004,4.3001 L20.2004,4.3001 Z" id="isobar-dark"></path>
        </g>
    </g>
</svg>