<svg width="495" height="158" viewBox="0 0 495 158" fill="none" xmlns="http://www.w3.org/2000/svg">
<g clip-path="url(#clip0)">
<path d="M316.371 73.588C314.64 74.1495 312.274 74.6249 309.335 74.9927C307.934 75.1756 306.377 75.2671 304.553 75.2671C301.491 75.2671 298.172 75.0232 294.959 74.772L294.848 74.7677C291.871 74.5435 289.055 74.3318 286.353 74.3318C284.423 74.3318 282.654 74.4466 280.957 74.6637C275.909 75.2897 271.928 76.8756 271.928 76.8756L271.971 76.4648C272.949 66.3416 281.456 57.6984 291.749 56.3314C292.698 56.2202 293.676 56.1574 294.654 56.1574C304.352 56.1574 313.757 63.509 316.552 73.2752L316.622 73.5281L316.371 73.588ZM328.22 77.8863L328.217 77.7482C328.173 77.097 328.049 76.044 327.912 74.912C327.647 72.858 327.198 70.8362 326.578 68.8862C321.897 54.1202 309.366 44.5908 294.654 44.5908C293.186 44.5908 291.669 44.6841 290.173 44.8886C271.306 47.3158 258.492 64.4156 260.987 83.8153C263.256 101.378 277.387 113.41 294.584 113.41C296.035 113.41 297.546 113.309 299.072 113.126C308.238 111.962 316.29 108.123 322.323 100.659C322.663 100.233 322.831 99.6898 322.768 99.2036C322.713 98.7713 322.46 98.3605 322.004 98.0304C320.992 97.3021 317.379 95.5494 315.413 94.6129C314.836 94.3241 314.369 94.0999 314.111 93.9707C313.515 93.664 313.088 93.5258 312.699 93.5258C312.222 93.5258 311.77 93.7698 311.328 94.3062C307.439 98.8269 302.517 101.202 297.488 101.862C296.491 101.984 295.524 102.049 294.584 102.049C285.419 102.049 276.169 95.9118 273.484 87.4892L273.417 87.2686L273.614 87.1736C274.09 86.9368 278.379 84.9401 284.735 84.9401C285.523 84.9401 286.326 84.9724 287.11 85.0425C288.933 85.186 290.765 85.4228 292.695 85.6667C296.259 86.1385 299.955 86.6265 304.269 86.6265C306.928 86.6265 309.542 86.4345 312.207 86.0632C322.698 84.0414 326.86 81.0994 326.893 81.0725C328.374 80.1145 328.319 79.3198 328.22 77.8864" fill="#CCCCCC"/>
<path d="M492.563 48.4566C492.563 47.5758 491.84 46.8672 490.968 46.8672H482.285C481.421 46.8672 480.705 47.5758 480.705 48.4566V110.193C480.705 111.065 481.421 111.786 482.285 111.786H490.968C491.84 111.786 492.563 111.065 492.563 110.193V48.4566Z" fill="#CCCCCC"/>
<path d="M486.634 24.8486C482.318 24.8486 478.796 28.3719 478.796 32.6953C478.796 37.0079 482.318 40.524 486.634 40.524C490.961 40.524 494.471 37.0079 494.471 32.6953C494.471 28.3719 490.961 24.8486 486.634 24.8486Z" fill="#CCCCCC"/>
<path d="M371.696 56.3161C384.001 56.3161 393.643 66.4428 393.643 79.3789C393.643 92.3921 384.494 102.196 372.358 102.196C366.23 102.196 360.55 99.9984 356.394 96.0177C352.106 91.9239 349.755 86.1438 349.755 79.7664C349.755 66.8357 359.596 56.3161 371.696 56.3161ZM371.31 113.431C371.859 113.455 372.428 113.476 372.981 113.476C381.902 113.476 390.192 110.032 396.352 103.825C402.599 97.4976 406.029 88.8203 406.029 79.3788C406.029 59.8734 391.011 44.5908 371.836 44.5908C356.232 44.5908 343.06 54.8665 339.032 70.1508C338.347 72.7467 337.638 79.3645 337.638 85.9644V134.404C337.638 135.287 338.347 136.006 339.23 136.006H347.842C348.732 136.006 349.453 135.278 349.453 134.392L349.446 103.877L349.898 104.316C354.128 108.426 361.973 112.994 371.31 113.431" fill="#CCCCCC"/>
<path d="M216.962 56.3161C229.256 56.3161 238.902 66.4428 238.902 79.3789C238.902 92.3921 229.756 102.196 217.61 102.196C211.467 102.196 205.813 99.9984 201.66 96.0177C197.365 91.9239 195.002 86.1438 195.002 79.7664C195.002 66.8357 204.853 56.3161 216.962 56.3161ZM216.58 113.431C217.129 113.455 217.694 113.476 218.237 113.476C227.168 113.476 235.461 110.032 241.611 103.825C247.859 97.4976 251.3 88.8203 251.3 79.3788C251.3 59.8734 236.27 44.5908 217.091 44.5908C201.493 44.5908 188.307 54.8665 184.289 70.1508C183.591 72.7467 182.893 79.3645 182.893 85.9644V134.404C182.893 135.287 183.609 136.006 184.47 136.006H193.108C193.994 136.006 194.715 135.278 194.715 134.392L194.701 103.877L195.137 104.316C199.369 108.426 207.214 112.994 216.58 113.431" fill="#CCCCCC"/>
<path d="M414.326 102.617C421.824 109.479 430.015 113.399 440.65 113.399H440.987C459.343 113.281 467.544 103.247 467.544 93.3626C467.544 79.6892 454.644 75.9524 450.692 75.1236C449.424 74.8761 448.105 74.6285 446.753 74.3594C443.558 73.7441 440.241 73.109 437.227 72.2766C435.114 71.6954 428.225 69.401 428.225 64.2506C428.225 58.5799 434.518 55.5231 440.429 55.5231C445.395 55.5231 449.535 56.3591 454.833 60.4959C455.247 60.8224 455.828 61.1955 456.537 61.1955C457.061 61.1955 457.563 61.0143 458.103 60.6286C459.57 59.5469 462.254 57.2829 464.027 55.5105C464.445 55.0871 464.64 54.6243 464.615 54.1399C464.574 53.3883 464.016 52.773 463.729 52.5362C456.644 46.9158 449.826 44.6159 440.212 44.5908H440.142C426.39 44.5908 416.008 53.4313 416.008 65.1511C416.008 74.4383 423.643 81.0346 437.482 83.7524L446.148 85.4136C451.844 86.4595 455.046 89.4841 454.935 93.7196C454.833 97.8474 449.77 102.122 441.452 102.122C434.662 102.122 428.681 99.4709 423.67 94.9233L423.597 94.8516C423.243 94.5304 422.82 94.1393 422.251 94.1393C421.853 94.1393 421.431 94.3241 420.976 94.6793C420.454 95.1027 414.666 99.679 414.049 100.327C413.766 100.63 413.633 100.951 413.639 101.288C413.653 101.823 414.006 102.323 414.326 102.617" fill="#CCCCCC"/>
<path d="M134.748 134.75C103.929 165.576 53.9421 165.572 23.125 134.75C-7.70832 103.92 -7.70832 53.937 23.125 23.1172C53.9491 -7.70621 103.929 -7.70621 134.742 23.1201C165.575 53.9363 165.575 103.919 134.748 134.749" fill="#CCCCCC"/>
<path d="M140.382 39.1016C141.861 43.8914 142.671 48.9754 142.671 54.246C142.671 71.2525 134.31 86.2067 121.593 95.5765C99.4794 111.864 67.2481 111.885 22.7452 125.908C36.1766 141.962 56.3605 152.18 78.9333 152.18C119.388 152.18 152.181 119.387 152.181 78.9341C152.181 64.249 147.834 50.5774 140.382 39.1016Z" fill="#A5A5A5"/>
<path d="M122.861 20.3277C110.621 11.1284 95.4151 5.68555 78.9354 5.68555C38.4822 5.68555 5.69025 38.4859 5.69025 78.9338C5.69025 95.2155 11.0019 110.254 19.9856 122.413C69.2489 108.069 108.147 69.4259 122.861 20.3277Z" fill="#B9B9B9"/>
</g>
<defs>
<clipPath id="clip0">
<rect width="494.471" height="157.868" fill="white"/>
</clipPath>
</defs>
</svg>
