<svg width="761" height="242" viewBox="0 0 761 242" fill="none" xmlns="http://www.w3.org/2000/svg">
<path d="M46.22 97.9602C46.22 100.214 48.04 102.207 51.68 103.94C55.32 105.5 61.04 107.32 68.84 109.4C96.5733 115.467 110.353 129.334 110.18 151C110.18 165.04 104.98 175.7 94.58 182.98C84.0066 190.087 71.18 193.64 56.1 193.64C28.7133 193.64 10.08 183.327 0.199951 162.7L34 143.46C37.4666 153.687 44.8333 158.8 56.1 158.8C65.46 158.8 70.14 156.114 70.14 150.74C70.14 146.927 62.6 143.114 47.52 139.3C41.9733 137.74 37.2066 136.18 33.22 134.62C29.2333 132.887 24.9 130.547 20.22 127.6C15.7133 124.48 12.2466 120.494 9.81995 115.64C7.39329 110.787 6.17995 105.24 6.17995 99.0002C6.17995 85.6535 11.0333 75.1669 20.74 67.5402C30.4466 60.0869 42.58 56.3602 57.14 56.3602C79.8466 56.3602 96.7466 65.6335 107.84 84.1802L74.56 102.12C70.4 94.4935 64.5933 90.6802 57.14 90.6802C49.86 90.6802 46.22 93.1069 46.22 97.9602Z" fill="#CCCCCC"/>
<path d="M208.661 56.3602C225.648 56.3602 240.294 63.0335 252.601 76.3802C264.734 89.5535 270.801 105.76 270.801 125C270.801 144.414 264.734 160.707 252.601 173.88C240.468 187.054 225.821 193.64 208.661 193.64C191.848 193.64 178.934 188.354 169.921 177.78V242H130.921V60.0002H169.921V72.2202C178.934 61.6469 191.848 56.3602 208.661 56.3602ZM178.501 148.14C184.394 153.86 191.848 156.72 200.861 156.72C209.874 156.72 217.241 153.86 222.961 148.14C228.854 142.42 231.801 134.707 231.801 125C231.801 115.294 228.854 107.58 222.961 101.86C217.241 96.1402 209.874 93.2802 200.861 93.2802C191.848 93.2802 184.394 96.1402 178.501 101.86C172.781 107.58 169.921 115.294 169.921 125C169.921 134.707 172.781 142.42 178.501 148.14Z" fill="#CCCCCC"/>
<path d="M328.793 41.8002C324.287 46.3069 318.827 48.5602 312.413 48.5602C306 48.5602 300.453 46.3069 295.773 41.8002C291.267 37.1202 289.013 31.5735 289.013 25.1602C289.013 18.7469 291.267 13.2869 295.773 8.78019C300.453 4.10019 306 1.76019 312.413 1.76019C318.827 1.76019 324.287 4.10019 328.793 8.78019C333.473 13.2869 335.813 18.7469 335.813 25.1602C335.813 31.5735 333.473 37.1202 328.793 41.8002ZM331.913 190H292.913V60.0002H331.913V190Z" fill="#CCCCCC"/>
<path d="M396.332 41.8002C391.826 46.3069 386.366 48.5602 379.952 48.5602C373.539 48.5602 367.992 46.3069 363.312 41.8002C358.806 37.1202 356.552 31.5735 356.552 25.1602C356.552 18.7469 358.806 13.2869 363.312 8.78019C367.992 4.10019 373.539 1.76019 379.952 1.76019C386.366 1.76019 391.826 4.10019 396.332 8.78019C401.012 13.2869 403.352 18.7469 403.352 25.1602C403.352 31.5735 401.012 37.1202 396.332 41.8002ZM399.452 190H360.452V60.0002H399.452V190Z" fill="#CCCCCC"/>
<path d="M466.991 190H427.991V0.200195H466.991V190Z" fill="#CCCCCC"/>
<path d="M571.71 125L620.33 190H576.13L534.53 132.54V190H495.53V8.00019H534.53V116.94L573.53 60.0002H619.03L571.71 125Z" fill="#CCCCCC"/>
<path d="M721.18 72.2202V60.0002H760.18V190H721.18V177.78C712.167 188.354 699.253 193.64 682.44 193.64C665.28 193.64 650.633 187.054 638.5 173.88C626.367 160.707 620.3 144.414 620.3 125C620.3 105.76 626.367 89.5535 638.5 76.3802C650.807 63.0335 665.453 56.3602 682.44 56.3602C699.253 56.3602 712.167 61.6469 721.18 72.2202ZM659.3 125C659.3 134.707 662.16 142.42 667.88 148.14C673.6 153.86 681.053 156.72 690.24 156.72C699.427 156.72 706.88 153.86 712.6 148.14C718.32 142.42 721.18 134.707 721.18 125C721.18 115.294 718.32 107.58 712.6 101.86C706.88 96.1402 699.427 93.2802 690.24 93.2802C681.053 93.2802 673.6 96.1402 667.88 101.86C662.16 107.58 659.3 115.294 659.3 125Z" fill="#CCCCCC"/>
</svg>
