<svg width="290" height="100" viewBox="0 0 290 100" fill="none" xmlns="http://www.w3.org/2000/svg">
<path d="M148.899 27.1868L136.683 0.743164H120.905L133.532 27.1868H148.899Z" fill="#CCCCCC"/>
<path d="M91.5683 27.1868L96.2411 14.8925L101.375 27.1868H116.137L104.397 0.743164H87.624L76.9578 27.1868H91.5683Z" fill="#CCCCCC"/>
<path d="M57.1049 0.743164H42.6229V27.1893H57.1049V0.743164Z" fill="#CCCCCC"/>
<path d="M14.6445 0.743164H0.170044V27.1893H14.6445V0.743164Z" fill="#CCCCCC"/>
<path d="M280.608 27.1871C271.905 22.0254 260.07 20.9694 260.07 15.417C260.07 12.5136 263.376 10.6359 268.583 10.6359C273.526 10.6359 278.559 12.0902 286.972 15.8379V4.50136C279.65 1.35343 273.788 0 267.313 0C253.837 0 245.154 6.63107 245.154 16.6898C245.154 21.2088 246.533 24.5634 248.698 27.1871H280.608Z" fill="#CCCCCC"/>
<path d="M170.118 27.1868L182.173 0.743164H166.587L154.963 27.1868H170.118Z" fill="#CCCCCC"/>
<path d="M202.552 27.1868L207.233 14.8925L212.359 27.1868H227.113L215.371 0.743164H198.593L187.914 27.1868H202.552Z" fill="#CCCCCC"/>
<path d="M185.104 34.1963L175.156 58.8731H190.497L199.896 34.1963H185.104Z" fill="#CCCCCC"/>
<path d="M215.273 34.1963L225.581 58.8731H241.179L230.226 34.1963H215.273Z" fill="#CCCCCC"/>
<path d="M136.874 34.1963L149.035 59.6166H155.328L166.945 34.1963H136.874Z" fill="#CCCCCC"/>
<path d="M259.419 34.1963C266.978 37.2636 274.713 38.7329 274.713 43.6023C274.713 47.0249 271.721 48.9858 266.191 48.9858C259.792 48.9858 254.691 47.0274 246.336 41.4852V54.0164C252.138 56.9829 257.171 59.6166 267.31 59.6166C280.247 59.6166 289.618 53.1469 289.618 42.0044C289.618 38.9068 288.938 36.3436 287.763 34.1963H259.419Z" fill="#CCCCCC"/>
<path d="M57.1049 34.1934H42.6229V58.8702H57.1049V34.1934Z" fill="#CCCCCC"/>
<path d="M14.652 34.1934H0.175049V58.8702H14.652V34.1934Z" fill="#CCCCCC"/>
<path d="M74.1274 34.1963L64.172 58.8731H79.5159L88.9068 34.1963H74.1274Z" fill="#CCCCCC"/>
<path d="M104.306 34.1963L114.62 58.8731H130.208L119.254 34.1963H104.306Z" fill="#CCCCCC"/>
<path fill-rule="evenodd" clip-rule="evenodd" d="M289.582 70.5883H0.170044V68.2354H289.582V70.5883Z" fill="#CCCCCC"/>
<path d="M0 99.9998V78.9463H4.19347L9.17682 93.8532C9.63637 95.2415 9.97147 96.2803 10.1821 96.9696C10.4215 96.2037 10.7948 95.0787 11.3023 93.5947L16.3431 78.9463H20.0913V99.9998H17.4058V82.3786L11.2879 99.9998H8.7747L2.68555 82.077V99.9998H0Z" fill="#CCCCCC"/>
<path d="M74.3497 99.9998V78.9463H89.5726V81.4308H77.1358V87.879H88.7827V90.3491H77.1358V97.5153H90.0609V99.9998H74.3497Z" fill="#CCCCCC"/>
<path d="M143.616 99.9998V78.9463H150.868C152.505 78.9463 153.755 79.0468 154.616 79.2479C155.823 79.5255 156.852 80.0282 157.704 80.7558C158.815 81.6941 159.643 82.8956 160.188 84.3605C160.744 85.8157 161.021 87.4816 161.021 89.3582C161.021 90.957 160.835 92.374 160.461 93.6091C160.088 94.8442 159.609 95.8686 159.025 96.6824C158.441 97.4866 157.8 98.1233 157.101 98.5924C156.411 99.052 155.574 99.4014 154.588 99.6408C153.611 99.8801 152.486 99.9998 151.213 99.9998H143.616ZM146.402 97.5153H150.897C152.285 97.5153 153.372 97.3861 154.157 97.1276C154.951 96.8691 155.583 96.5053 156.052 96.0361C156.713 95.3755 157.225 94.4899 157.589 93.3793C157.962 92.2591 158.149 90.9044 158.149 89.3151C158.149 87.113 157.785 85.4232 157.058 84.2456C156.34 83.0584 155.464 82.2637 154.43 81.8616C153.683 81.5744 152.481 81.4308 150.825 81.4308H146.402V97.5153Z" fill="#CCCCCC"/>
<path d="M215.05 99.9998V78.9463H217.836V99.9998H215.05Z" fill="#CCCCCC"/>
<path d="M270.156 99.9998L278.241 78.9463H281.243L289.859 99.9998H286.685L284.23 93.6234H275.426L273.114 99.9998H270.156ZM276.23 91.3544H283.368L281.171 85.5237C280.501 83.7525 280.003 82.2972 279.677 81.1579C279.409 82.5079 279.031 83.8482 278.543 85.1791L276.23 91.3544Z" fill="#CCCCCC"/>
</svg>
