<svg width="496" height="333" viewBox="0 0 496 333" fill="none" xmlns="http://www.w3.org/2000/svg">
<path d="M357.823 153.169C357.823 153.169 337.218 159.123 297.361 183.616C261.63 205.61 247.618 220.388 247.618 220.388L137.384 144.205C137.384 144.205 183.76 110.101 222.509 136.221L274.489 171.879L280.83 167.708L137.406 67.2263C137.406 67.2263 158.018 61.2648 197.853 36.7872C233.607 14.7849 247.618 0.000213474 247.618 0.000213474L357.846 76.1833C357.846 76.1833 311.477 110.287 272.72 84.1665L220.74 48.502L214.399 52.6646L357.823 153.169Z" fill="#CCCCCC"/>
<path d="M272.45 257.096H188.551V275.753H229.077L187.124 314.919V330.551H272.294V311.819H229.917L272.45 272.75V257.096Z" fill="#CCCCCC"/>
<path d="M139.153 332.43C172.706 332.43 181.299 323.859 181.299 304.964V257.094H154.718V302.102C154.718 309.662 148.251 314.166 139.153 314.166C129.69 314.166 123.603 309.639 123.603 301.983V257.094H97.0214V304.964C97.0214 323.859 105.614 332.43 139.153 332.43Z" fill="#CCCCCC"/>
<path d="M321.157 332.43C354.711 332.43 363.304 323.859 363.304 304.964V257.094H336.715V302.102C336.715 309.662 330.241 314.166 321.157 314.166C311.695 314.166 305.585 309.639 305.585 301.983V257.094H279.011V304.964C279.011 323.859 287.604 332.43 321.157 332.43Z" fill="#CCCCCC"/>
<path d="M496 257.096H468.282V330.551H496V257.096Z" fill="#CCCCCC"/>
<path d="M464.059 257.096H427.591L398.082 282.443V257.096H370.356V330.551H398.082V304.497L425.488 330.551H462.728L422.195 292.864L464.059 257.096Z" fill="#CCCCCC"/>
<path d="M31.502 277.392C31.502 271.713 39.9164 271.527 42.7559 271.527C45.6028 271.527 52.0177 272.664 56.381 279.823H87.7268C87.7268 265.982 74.6072 254.973 42.8525 254.973C7.58188 254.973 1.57584 270.449 1.57584 279.339C1.57584 295.73 14.2718 300.531 41.8787 303.475C44.2425 303.72 58.6035 303.044 58.6035 309.949C58.6035 315.063 50.531 315.405 47.5577 315.405C44.6067 315.405 39.0839 314.922 34.5199 306.798H0C0 322.928 10.8748 332.249 47.5057 332.249C81.2451 332.249 90.2021 318.475 90.2021 308.002C90.2021 297.833 83.2223 287.486 54.4558 283.807C42.4585 282.253 31.502 281.599 31.502 277.392Z" fill="#CCCCCC"/>
</svg>
