<svg width="301" height="100" viewBox="0 0 301 100" fill="none" xmlns="http://www.w3.org/2000/svg">
<path fill-rule="evenodd" clip-rule="evenodd" d="M256.271 63.6497C285.04 50.6463 301.994 36.1681 299.825 23.7332C295.751 0.306095 225.377 -7.01099 142.631 7.41236C106.512 13.7008 74.0055 23.0878 49.1812 33.6181C50.502 33.306 51.9585 33.165 53.4931 33.165C57.8834 33.165 63.9479 34.2192 63.9479 40.9782V43.1547H56.2153V41.2386C56.2153 39.5458 55.1426 38.4234 53.3319 38.4234C51.391 38.4234 50.7151 39.5148 50.4981 40.5007C50.4237 40.8542 50.3802 41.5177 50.5291 42.1378C50.9005 43.679 53.2397 44.9157 55.9079 46.3264C59.5199 48.2361 63.7348 50.4645 64.4874 54.1986C64.6114 54.8621 64.8966 56.6169 64.5184 59.2957C63.7866 64.4673 59.167 66.3834 53.5551 66.3834C47.72 66.3834 42.2756 64.2937 42.2756 57.3797L42.2818 54.9799H50.6035V57.9811C50.6035 59.6802 51.7817 60.7964 53.7287 60.7964C55.7875 60.7964 56.4882 59.7422 56.7486 58.7128C56.8912 58.13 56.9842 57.1626 56.6804 56.4123C55.9948 54.6903 53.5804 53.3692 50.938 51.9233C47.4146 49.9953 43.4857 47.8454 42.7097 44.2275C42.3873 42.6711 42.4183 41.4309 42.6415 40.0357C42.9974 37.8573 44.0394 36.2795 45.5525 35.1896C15.6968 48.3942 -2.01467 63.2111 0.19616 75.9016C4.27637 99.3349 74.6631 106.646 157.402 92.2348C194.315 85.8065 227.449 76.1429 252.468 65.3307C251.178 65.6366 249.779 65.775 248.339 65.775C242.832 65.775 237.946 63.7597 237.419 58.1169C237.332 57.0813 237.32 56.6535 237.307 56.0706L237.313 43.0114C237.313 42.4595 237.382 41.486 237.444 40.9651C238.132 35.1673 242.832 33.3008 248.339 33.3008C253.839 33.3008 258.657 35.1549 259.227 40.9651C259.327 41.9511 259.296 43.0114 259.296 43.0114V44.047H251.476V42.3107C251.482 42.3169 251.464 41.5728 251.377 41.1325C251.247 40.4442 250.652 38.8692 248.283 38.8692C246.019 38.8692 245.362 40.3574 245.195 41.1325C245.102 41.5418 245.064 42.0937 245.064 42.596V56.7837C245.058 57.1743 245.083 57.6084 245.145 57.9619C245.269 58.7742 246.05 60.1942 248.295 60.1942C250.54 60.1942 251.327 58.7742 251.47 57.9495C251.526 57.596 251.544 57.1619 251.538 56.7713V52.2694H248.357V47.7427H259.358V56.0706C259.351 56.6535 259.339 57.0813 259.246 58.1169C259.016 60.6366 257.912 62.433 256.271 63.6497ZM221.526 34.1445L221.947 58.4956H221.78L214.649 34.1445H203.128V64.8391H210.761L210.333 39.651H210.501L218.165 64.8391H229.203V34.1445H221.526ZM82.3646 37.0218L78.117 65.1616H69.7395L75.4878 34.1445H89.2848L95.0145 65.1616H86.6681L82.5382 37.0218H82.3646ZM122.367 34.1445L118.535 57.8569H118.367L114.541 34.1445H101.885L101.197 65.1616H108.967L109.159 37.276H109.326L114.516 65.1616H122.385L127.569 37.276H127.731L127.935 65.1616H135.686L135.017 34.1445H122.367ZM157.607 58.6256C157.743 58.0427 157.842 57.1002 157.538 56.3561C156.861 54.6536 154.473 53.346 151.859 51.9146C148.37 50.004 144.479 47.8731 143.717 44.2891C143.394 42.7388 143.419 41.5235 143.642 40.1468C144.448 35.1303 148.919 33.332 154.376 33.332C158.729 33.332 164.744 34.38 164.744 41.0646V43.2225H157.067V41.325C157.067 39.6384 156.019 38.547 154.221 38.547C152.299 38.547 151.635 39.6074 151.412 40.6057C151.337 40.9406 151.294 41.5917 151.443 42.2118C151.812 43.7404 154.129 44.9665 156.771 46.3649C160.346 48.2567 164.516 50.4636 165.265 54.1609C165.401 54.812 165.668 56.5421 165.29 59.2023C164.564 64.3243 159.988 66.2155 154.438 66.2155C148.665 66.2155 143.27 64.1506 143.27 57.3048L143.282 54.9361H151.517L151.523 57.9125C151.523 59.5743 152.695 60.6905 154.612 60.6905C156.658 60.6905 157.352 59.655 157.607 58.6256ZM183.589 60.523C185.74 60.523 186.41 59.0347 186.559 58.272C186.621 57.9372 186.639 57.4907 186.633 57.0877V34.1318H194.477V56.3808C194.496 56.9512 194.44 58.1232 194.409 58.4147C193.857 64.2063 189.281 66.0852 183.582 66.0852C177.877 66.0852 173.295 64.2063 172.749 58.4147C172.724 58.1232 172.669 56.945 172.681 56.3808V34.1318H180.519V57.0815C180.519 57.4845 180.531 57.9372 180.593 58.2658C180.767 59.0285 181.418 60.523 183.589 60.523Z" fill="#CCCCCC"/>
</svg>
