<svg width="162" height="100" viewBox="0 0 162 100" fill="none" xmlns="http://www.w3.org/2000/svg">
<path d="M76.4817 90.6682C76.8728 90.9986 77.2908 91.329 77.7021 91.6526C69.766 96.9321 60.2387 100 50.0101 100C22.3855 100.007 0 77.6212 0 50.0034C0 22.3923 22.3855 0 50.0034 0C60.2387 0 69.766 3.07464 77.6819 8.34738C77.2773 8.69125 76.8728 9.00816 76.5693 9.35877C64.7293 19.5873 57.9529 34.4144 57.9529 50.0034C57.9529 65.5856 64.7023 80.4126 76.4817 90.6682ZM111.82 0C101.571 0 92.0572 3.07464 84.1413 8.34738C84.5459 8.69125 84.9504 9.00816 85.2539 9.35877C97.0939 19.5873 103.87 34.4144 103.87 50.0034C103.87 65.5788 97.1209 80.3924 85.3415 90.6682C84.9504 90.9986 84.5324 91.329 84.1211 91.6526C92.0572 96.9321 101.571 100 111.813 100C139.438 100.007 161.823 77.6212 161.823 50.0034C161.823 22.399 139.438 0 111.82 0ZM80.9116 10.7208C80.2643 11.2265 79.6372 11.7322 79.0237 12.2783C68.4782 21.4416 61.8232 34.9336 61.8232 50.0034C61.8232 65.0799 68.4782 78.5652 79.0237 87.7284C79.6305 88.2678 80.271 88.7937 80.9116 89.2927C81.5589 88.7937 82.186 88.2678 82.7995 87.7284C93.3383 78.5652 100 65.0799 100 50.0034C100 34.9336 93.345 21.4416 82.7995 12.2783C82.1927 11.7389 81.5589 11.2265 80.9116 10.7208Z" fill="#CCCCCC"/>
</svg>
