<svg width="200" height="37" viewBox="0 0 200 37" fill="none" xmlns="http://www.w3.org/2000/svg">
<path d="M188.555 27.7885C188.503 28.2003 188.347 29.2837 186.936 29.4245H174.54C173.129 29.2837 172.871 28.2003 172.818 27.7885V8.65278C172.871 8.23994 173.066 7.36241 174.478 7.22168H186.941C188.353 7.36241 188.503 8.23994 188.555 8.65278V27.7885ZM192.847 0.0118494H168.527C164.872 0.306661 161.785 2.15998 161.374 6.30612V29.9973C161.785 34.1435 164.872 36.34 168.527 36.6348H192.847C196.501 36.34 199.588 34.1435 200 29.9973V6.30612C199.588 2.15998 196.501 0.306661 192.847 0.0118494ZM94.4205 7.22168H83.5474V0.0118494H116.738V7.22168H105.865V36.6348H94.4205V7.22168V7.22168ZM80.1144 7.22168V0.0118494H50.357V36.6348L80.5099 36.6269L80.5208 29.425H61.831L61.8329 21.5811H80.1142V14.3891H61.8329V7.22169H80.1142L80.1144 7.22168ZM146.495 12.8982C146.495 13.6908 146.298 14.3861 144.875 14.3861H131.617V7.19748H144.893C146.508 7.19748 146.495 8.25426 146.495 8.91401V12.8982V12.8982ZM149.666 22.3979C153.236 22.1119 156.795 19.6818 156.795 15.6908V6.64933C156.381 2.52245 153.285 0.293825 149.614 0H120.171L120.172 36.6348H131.617V22.3979H136.172L143.611 36.6348H156.773L147.914 22.3979H149.665H149.666ZM26.6665 36.6348L34.3344 13.631V36.6348H45.7794V0.0118494H30.3291L22.8897 18.3238L15.4503 0.0118494H0V36.6348H11.445V13.631L19.1696 36.6348H26.6665" fill="#CCCCCC"/>
</svg>
