<svg width="60" height="60" viewBox="0 0 60 60" fill="none" xmlns="http://www.w3.org/2000/svg">
<path opacity="0.5" d="M13.8351 25.1358C12.6694 15.4926 20.1972 7 29.9107 7C39.6242 7 47.152 15.4926 45.9863 25.1358L44.0754 40.9444C43.2092 48.1099 37.1284 53.5 29.9107 53.5C22.693 53.5 16.6122 48.1099 15.746 40.9444L13.8351 25.1358Z" stroke="#BECFCF" stroke-width="4"/>
<rect x="33" y="43" width="3" height="6" rx="1.5" transform="rotate(90 33 43)" fill="#BECFCF"/>
<path d="M10 26.5C10 23.4624 12.4624 21 15.5 21H44.5C47.5376 21 50 23.4624 50 26.5C50 29.5376 47.5376 32 44.5 32H15.5C12.4624 32 10 29.5376 10 26.5Z" fill="#F2F6F6" stroke="#FC605C" stroke-width="4"/>
</svg>
